# Wavefront Obj file
# 
# verts: 165 uv-s: 257
mtllib pillar_04.mtl

g Plane.004_Plane.006
#pivot 0.000000 0.000000 0.000000

v -2.028507 0.968326 -2.004282
v -2.135714 0.968326 -1.975556
v -1.950026 0.968326 -2.082763
v -1.921300 0.968326 -2.189971
v -1.950026 0.968326 -2.297178
v -2.028507 0.968326 -2.375659
v -2.135714 0.968326 -2.404385
v -2.242922 0.968326 -2.375659
v -2.321403 0.968326 -2.297178
v -2.350129 0.968326 -2.189971
v -2.321403 0.968326 -2.082763
v -2.242922 0.968326 -2.004282
v -1.997474 0.953690 -1.950532
v -2.135714 0.953690 -1.913491
v -1.896276 0.953690 -2.051731
v -1.859234 0.953690 -2.189971
v -1.896276 0.953690 -2.328211
v -1.997474 0.953690 -2.429410
v -2.135714 0.953690 -2.466451
v -2.273954 0.953690 -2.429410
v -2.375153 0.953690 -2.328211
v -2.412194 0.953690 -2.189971
v -2.375153 0.953690 -2.051731
v -2.273955 0.953690 -1.950532
v -2.059338 1.018016 -2.057683
v -1.984404 1.250267 -1.927893
v -2.135714 1.018016 -2.037218
v -2.003427 1.018016 -2.113595
v -1.982962 1.018016 -2.189971
v -2.003427 1.018016 -2.266347
v -2.059338 1.018016 -2.322258
v -2.135714 1.018016 -2.342723
v -2.212090 1.018016 -2.322258
v -2.268002 1.018016 -2.266347
v -2.288467 1.018016 -2.189971
v -2.268002 1.018016 -2.113595
v -2.212091 1.018016 -2.057683
v -2.028507 1.001693 -2.004282
v -2.135714 1.001693 -1.975556
v -1.950026 1.001693 -2.082763
v -1.921300 1.001693 -2.189971
v -1.950026 1.001693 -2.297178
v -2.028507 1.001693 -2.375659
v -2.135714 1.001693 -2.404385
v -2.242922 1.001693 -2.375659
v -2.321403 1.001693 -2.297178
v -2.350129 1.001693 -2.189971
v -2.321403 1.001693 -2.082763
v -2.242922 1.001693 -2.004282
v -2.059338 1.059435 -2.057683
v -2.021159 1.286404 -1.991555
v -2.135714 1.059435 -2.037218
v -2.003427 1.059435 -2.113595
v -1.982962 1.059435 -2.189971
v -2.003427 1.059435 -2.266347
v -2.059338 1.059435 -2.322258
v -2.135714 1.059435 -2.342723
v -2.212090 1.059435 -2.322258
v -2.268002 1.059435 -2.266347
v -2.288467 1.059435 -2.189971
v -2.268002 1.059435 -2.113595
v -2.212091 1.059435 -2.057683
v -2.001921 1.128669 -2.421707
v -2.135714 1.250267 -1.887350
v -1.873637 1.250267 -2.038660
v -1.833094 1.250267 -2.189971
v -1.873637 1.250267 -2.341281
v -1.984404 1.250267 -2.452048
v -2.135714 1.250267 -2.492592
v -2.287025 1.250267 -2.452048
v -2.397792 1.250267 -2.341281
v -2.438335 1.250267 -2.189971
v -2.397792 1.250267 -2.038660
v -2.287025 1.250267 -1.927894
v -2.135714 1.286404 -1.960860
v -1.937299 1.286404 -2.075415
v -1.906604 1.286404 -2.189971
v -1.937299 1.286404 -2.304526
v -2.021159 1.286404 -2.388386
v -2.135714 1.286404 -2.419081
v -2.250270 1.286404 -2.388386
v -2.334130 1.286404 -2.304526
v -2.364825 1.286404 -2.189971
v -2.334130 1.286404 -2.075415
v -2.250270 1.286404 -1.991555
v -2.367451 1.128669 -2.323764
v -2.135714 1.128669 -1.922384
v -2.001921 1.128669 -1.958234
v -2.269508 1.128669 -1.958234
v -1.903978 1.128669 -2.323764
v -2.135714 1.128669 -2.457557
v -2.269508 1.128669 -2.421707
v -2.403301 1.128669 -2.189971
v -2.367451 1.128669 -2.056178
v -1.903978 1.128669 -2.056177
v -1.868128 1.128669 -2.189971
v -1.984404 1.286404 -1.927893
v -2.135714 1.286404 -1.887350
v -1.873637 1.286404 -2.038660
v -1.833094 1.286404 -2.189971
v -1.873637 1.286404 -2.341281
v -1.984404 1.286404 -2.452048
v -2.135714 1.286404 -2.492592
v -2.287025 1.286404 -2.452048
v -2.397792 1.286404 -2.341281
v -2.438335 1.286404 -2.189971
v -2.397792 1.286404 -2.038660
v -2.287025 1.286404 -1.927894
v -2.042679 1.208898 -2.028828
v -2.135714 1.208898 -2.189971
v -2.135714 1.208898 -2.003900
v -1.974572 1.208898 -2.096935
v -1.949643 1.208898 -2.189971
v -1.974572 1.208898 -2.283006
v -2.042679 1.208898 -2.351113
v -2.135714 1.208898 -2.376042
v -2.228750 1.208898 -2.351113
v -2.296857 1.208898 -2.283006
v -2.321786 1.208898 -2.189971
v -2.296857 1.208898 -2.096935
v -2.228750 1.208898 -2.028828
v -1.535940 0.000000 -2.789745
v -2.735489 0.000000 -2.789745
v -1.535940 0.000000 -1.590197
v -2.735489 0.000000 -1.590197
v -1.666401 0.119465 -1.720658
v -1.666401 0.119465 -2.659284
v -2.605028 0.119465 -2.659284
v -2.605028 0.119465 -1.720658
v -1.535940 0.119465 -1.590197
v -1.535940 0.119465 -2.789745
v -2.735489 0.119465 -2.789745
v -2.735489 0.119465 -1.590197
v -1.796587 0.935074 -1.850844
v -1.796587 0.935074 -2.529098
v -2.474842 0.935074 -2.529098
v -2.474842 0.935074 -1.850844
v -1.781944 0.843332 -1.836200
v -2.489486 0.843332 -1.836200
v -2.489486 0.843332 -2.543742
v -1.781944 0.843332 -2.543742
v -1.786159 0.869744 -1.840416
v -2.485270 0.869744 -2.539526
v -2.485270 0.869744 -1.840416
v -1.786159 0.869744 -2.539526
v -2.443468 0.869744 -1.882218
v -2.447179 0.843332 -1.878506
v -1.827962 0.869744 -2.497724
v -1.824250 0.843332 -2.501436
v -1.824250 0.843332 -1.878506
v -2.447179 0.843332 -2.501436
v -1.827962 0.869744 -1.882218
v -2.443468 0.869744 -2.497724
v -1.896276 0.916400 -2.051731
v -1.997474 0.916400 -1.950532
v -1.859234 0.916400 -2.189971
v -1.896276 0.916400 -2.328211
v -1.997474 0.916400 -2.429410
v -2.135714 0.916400 -1.913491
v -2.135714 0.916400 -2.466451
v -2.273955 0.916400 -1.950532
v -2.273954 0.916400 -2.429410
v -2.375153 0.916400 -2.051731
v -2.375153 0.916400 -2.328211
v -2.412194 0.916400 -2.189971
# 165 positions

vt 0.739037 0.400340
vt 0.707317 0.377502
vt 0.715095 0.369175
vt 0.754738 0.514927
vt 0.748046 0.476018
vt 0.759421 0.475891
vt 0.609641 0.624927
vt 0.645738 0.610209
vt 0.648333 0.620956
vt 0.684852 0.606292
vt 0.708089 0.574556
vt 0.716120 0.582535
vt 0.678542 0.355152
vt 0.683770 0.345169
vt 0.742922 0.439739
vt 0.753962 0.436794
vt 0.729874 0.545781
vt 0.739925 0.551310
vt 0.644818 0.340815
vt 0.647279 0.330005
vt 0.729269 0.406193
vt 0.743614 0.512128
vt 0.608109 0.336240
vt 0.608749 0.323970
vt 0.679578 0.596457
vt 0.653135 0.642019
vt 0.606288 0.648961
vt 0.652415 0.309094
vt 0.694559 0.326224
vt 0.730647 0.353554
vt 0.758200 0.389224
vt 0.775284 0.430797
vt 0.781529 0.475254
vt 0.776476 0.520046
vt 0.759502 0.562056
vt 0.731942 0.597978
vt 0.695722 0.625239
vt 0.240281 0.989955
vt 0.272576 0.978139
vt 0.280900 0.990000
vt 0.056125 0.978146
vt 0.081620 0.963431
vt 0.086733 0.977660
vt 0.121747 0.980851
vt 0.152766 0.972254
vt 0.160230 0.985233
vt 0.394854 0.979679
vt 0.425308 0.964073
vt 0.428500 0.976943
vt 0.312555 0.975740
vt 0.320686 0.987479
vt 0.192186 0.975888
vt 0.200091 0.988407
vt 0.460410 0.962905
vt 0.459503 0.976313
vt 0.351741 0.971632
vt 0.358934 0.983628
vt 0.232558 0.977914
vt 0.491172 0.964629
vt 0.487255 0.978867
vt 0.114288 0.967169
vt 0.389603 0.966977
vt 0.642338 0.589063
vt 0.609438 0.612380
vt 0.615427 0.591083
vt 0.612741 0.359219
vt 0.641168 0.362534
vt 0.668223 0.374206
vt 0.691595 0.392407
vt 0.710282 0.416895
vt 0.721862 0.444880
vt 0.726115 0.474828
vt 0.722706 0.505223
vt 0.711459 0.533800
vt 0.693076 0.558793
vt 0.669780 0.577233
vt 0.309044 0.931606
vt 0.356644 0.884523
vt 0.349877 0.927763
vt 0.229937 0.935588
vt 0.190081 0.887042
vt 0.231194 0.890958
vt 0.527677 0.911676
vt 0.488203 0.864871
vt 0.538600 0.852870
vt 0.063592 0.916195
vt 0.104606 0.876002
vt 0.102546 0.921552
vt 0.397236 0.878868
vt 0.391779 0.922483
vt 0.273353 0.889941
vt 0.268815 0.933839
vt 0.015752 0.908558
vt 0.058575 0.866145
vt 0.148516 0.883463
vt 0.144997 0.926731
vt 0.436272 0.918707
vt 0.442879 0.874277
vt 0.315006 0.887809
vt 0.188468 0.929874
vt 0.478533 0.911829
vt 0.237083 0.878354
vt 0.537272 0.836448
vt 0.108663 0.864497
vt 0.404027 0.867099
vt 0.278611 0.877702
vt 0.010000 0.848279
vt 0.062385 0.853553
vt 0.153703 0.871786
vt 0.446274 0.861221
vt 0.320040 0.875302
vt 0.196271 0.876200
vt 0.490565 0.851381
vt 0.362058 0.871642
vt 0.322372 0.849359
vt 0.283566 0.820626
vt 0.321076 0.818649
vt 0.199195 0.850883
vt 0.165281 0.816963
vt 0.205972 0.819959
vt 0.482673 0.825736
vt 0.434367 0.806577
vt 0.469437 0.799741
vt 0.358027 0.815131
vt 0.361200 0.845314
vt 0.241614 0.852557
vt 0.245316 0.821161
vt 0.519687 0.808881
vt 0.499054 0.784455
vt 0.116826 0.840743
vt 0.093099 0.801703
vt 0.128521 0.812358
vt 0.396032 0.811628
vt 0.402553 0.841987
vt 0.282310 0.852034
vt 0.075027 0.829612
vt 0.063110 0.784455
vt 0.157400 0.845881
vt 0.443632 0.835208
vt 0.049407 0.963907
vt 0.037946 0.808457
vt 0.015596 0.832870
vt 0.452748 0.265502
vt 0.497801 0.310555
vt 0.469239 0.327045
vt 0.436258 0.327045
vt 0.407695 0.310555
vt 0.391205 0.281992
vt 0.391205 0.249011
vt 0.407695 0.220449
vt 0.436258 0.203958
vt 0.469239 0.203958
vt 0.497801 0.220449
vt 0.514292 0.249011
vt 0.514292 0.281992
vt 0.570395 0.948990
vt 0.547743 0.713172
vt 0.570396 0.709602
vt 0.942871 0.698415
vt 0.901964 0.287667
vt 0.942871 0.287667
vt 0.990000 0.193750
vt 0.579251 0.234657
vt 0.579251 0.193750
vt 0.990000 0.099833
vt 0.579251 0.140740
vt 0.579251 0.099833
vt 0.420749 0.036712
vt 0.010000 0.077619
vt 0.010000 0.036712
vt 0.945328 0.279330
vt 0.990000 0.234657
vt 0.376077 0.122292
vt 0.420749 0.077619
vt 0.857292 0.332339
vt 0.901964 0.698415
vt 0.857292 0.653743
vt 0.623923 0.185413
vt 0.990000 0.140740
vt 0.945328 0.185413
vt 0.337766 0.364131
vt 0.360025 0.247296
vt 0.372320 0.294859
vt 0.594607 0.661096
vt 0.358789 0.683750
vt 0.355219 0.661097
vt 0.051008 0.461013
vt 0.286825 0.483667
vt 0.054579 0.483667
vt 0.032654 0.770188
vt 0.010000 0.534369
vt 0.032653 0.530798
vt 0.321591 0.811196
vt 0.070587 0.529355
vt 0.321591 0.489792
vt 0.010000 0.172076
vt 0.291840 0.423080
vt 0.049564 0.423080
vt 0.635612 0.372159
vt 0.353775 0.623164
vt 0.314208 0.372159
vt 0.859333 0.990000
vt 0.608329 0.708158
vt 0.859333 0.668596
vt 0.369533 0.646783
vt 0.580293 0.646782
vt 0.064051 0.437567
vt 0.608328 0.950434
vt 0.593843 0.722645
vt 0.276083 0.446699
vt 0.290396 0.461013
vt 0.056100 0.757145
vt 0.046968 0.545112
vt 0.056101 0.543841
vt 0.065321 0.446699
vt 0.581564 0.637649
vt 0.368261 0.637650
vt 0.584709 0.934676
vt 0.584710 0.723915
vt 0.046968 0.755873
vt 0.596051 0.623162
vt 0.070587 0.771632
vt 0.740711 0.607222
vt 0.770437 0.568677
vt 0.787823 0.428093
vt 0.769655 0.383514
vt 0.740298 0.345214
vt 0.701798 0.315837
vt 0.656677 0.654286
vt 0.701869 0.636398
vt 0.788823 0.523650
vt 0.656835 0.297589
vt 0.794375 0.475696
vt 0.608593 0.662318
vt 0.606167 0.300113
vt 0.609641 0.287667
vt 0.571438 0.364131
vt 0.549199 0.247294
vt 0.571458 0.130458
vt 0.337786 0.130458
vt 0.454622 0.152708
vt 0.407058 0.165011
vt 0.454603 0.341882
vt 0.407040 0.329583
vt 0.372333 0.199734
vt 0.502166 0.329578
vt 0.536892 0.294856
vt 0.502184 0.165006
vt 0.536905 0.199730
vt 0.547742 0.945420
vt 0.623924 0.279330
vt 0.054672 0.122292
vt 0.591036 0.683749
vt 0.010000 0.766617
vt 0.331404 0.172076
vt 0.277353 0.437566
vt 0.593842 0.935947
# 257 texture coordinates

vn 0.484453 0.000000 -0.874817
vn 0.707106 0.000000 -0.707108
vn -0.707105 0.000000 -0.707108
vn -0.525550 0.000000 -0.850763
vn 0.500000 0.000000 0.866025
vn 0.012632 0.000000 0.999920
vn -0.474006 0.000000 0.880522
vn -0.856958 0.000000 0.515386
vn 0.965926 0.000000 -0.258820
vn 0.999952 0.000000 -0.009847
vn -0.258818 0.000000 -0.965926
vn -0.999920 0.000000 0.012630
vn 0.965926 0.000000 0.258819
vn 0.258819 0.000000 -0.965926
vn -0.965926 0.000000 -0.258818
vn 0.707110 0.000000 0.707104
vn 0.114760 0.973304 0.198770
vn 0.000000 0.973304 0.229520
vn 0.198770 0.973304 0.114760
vn 0.229518 0.973305 -0.000000
vn 0.198769 0.973304 -0.114759
vn 0.114759 0.973305 -0.198767
vn 0.000000 0.973305 -0.229517
vn -0.114759 0.973304 -0.198769
vn -0.198770 0.973304 -0.114760
vn -0.229520 0.973304 -0.000000
vn -0.198771 0.973304 0.114760
vn -0.114760 0.973304 0.198770
vn -0.866023 0.000000 -0.500005
vn 0.258819 0.000000 0.965926
vn -0.707112 0.000000 0.707101
vn -0.017612 0.000000 -0.999845
vn -0.965926 0.000000 0.258819
vn 0.866027 0.000000 0.499997
vn -0.258817 0.000000 0.965926
vn 0.000000 0.966703 0.255903
vn 0.127951 0.966703 0.221617
vn 0.221618 0.966703 0.127950
vn 0.255903 0.966703 -0.000000
vn 0.221618 0.966703 -0.127951
vn 0.127951 0.966703 -0.221618
vn 0.000000 0.966703 -0.255903
vn -0.127949 0.966703 -0.221618
vn -0.221617 0.966703 -0.127951
vn -0.255902 0.966703 -0.000000
vn -0.221617 0.966703 0.127950
vn -0.127951 0.966703 0.221617
vn 0.085513 -0.275845 -0.957391
vn 0.496506 -0.139982 -0.856672
vn 0.552751 -0.275843 -0.786370
vn -0.832174 -0.276855 -0.480456
vn -0.986397 -0.159796 -0.038565
vn -0.832343 -0.111806 -0.542866
vn 0.480455 -0.276855 0.832174
vn 0.834963 -0.159796 0.526595
vn 0.449395 -0.111807 0.886309
vn -0.085511 -0.275837 0.957393
vn -0.496503 -0.139977 0.856674
vn -0.552751 -0.275839 0.786371
vn 0.873527 -0.159796 -0.459800
vn 0.832173 -0.276855 -0.480458
vn -0.493649 -0.139981 -0.858321
vn -0.404642 -0.275844 -0.871880
vn -0.001651 -0.139979 0.990153
vn -0.858323 -0.139981 0.493647
vn -0.871882 -0.275843 0.404639
vn 0.960912 -0.276854 -0.000001
vn 0.992264 -0.111804 0.053964
vn 0.001650 -0.139982 -0.990153
vn -0.960913 -0.276851 -0.000000
vn 0.832174 -0.276855 0.480456
vn -0.000001 0.485473 0.874252
vn 0.437125 0.485474 0.757124
vn 0.874252 0.485473 0.000001
vn 0.757124 0.485474 -0.437125
vn -0.757124 0.485474 -0.437125
vn -0.874251 0.485473 0.000001
vn -0.437126 0.485474 0.757123
vn 0.757123 0.485474 0.437126
vn -0.437125 0.485475 -0.757123
vn 0.437123 0.485475 -0.757125
vn 0.000001 0.485478 -0.874249
vn -0.757123 0.485475 0.437126
vn 0.447150 -0.856394 0.258160
vn 0.516324 -0.856393 -0.000000
vn -0.447151 -0.856393 0.258161
vn -0.516324 -0.856393 -0.000000
vn -0.258161 -0.856393 -0.447150
vn 0.000000 -0.856393 -0.516324
vn 0.447149 -0.856393 -0.258163
vn -0.258163 -0.856393 0.447149
vn 0.258163 -0.856393 0.447149
vn 0.000001 -0.856393 0.516324
vn -0.447149 -0.856393 -0.258164
vn 0.258163 -0.856393 -0.447150
vn 0.000000 1.000000 0.000000
vn 0.000000 0.157622 0.987499
vn -0.101166 0.989712 0.101167
vn -0.000000 0.984337 0.176298
vn -0.047140 0.994704 0.091339
vn 0.000000 0.157623 -0.987499
vn -0.987499 0.157623 0.000000
vn 0.987499 0.157623 0.000000
vn 0.000000 -1.000000 0.000000
vn 0.990268 0.139172 0.000000
vn 0.990268 0.139172 0.000000
vn -0.990273 0.139137 0.000000
vn 0.000000 0.139172 -0.990268
vn 0.000000 0.139172 0.990268
vn 0.866025 0.000000 -0.500000
vn -0.101166 0.989712 -0.101167
vn -0.000000 0.984337 -0.176298
vn 0.101166 0.989712 -0.101167
vn 0.101166 0.989712 0.101167
vn 0.176296 0.984337 0.000000
vn 0.091338 0.994704 0.047139
vn -0.176297 0.984337 0.000000
vn -0.091338 0.994704 0.047139
vn 0.047139 0.994704 0.091339
vn -0.091338 0.994704 -0.047139
vn -0.047140 0.994704 -0.091339
vn 0.091339 0.994704 -0.047139
vn 0.047139 0.994704 -0.091339
# 123 normals

usemtl default
f 6/1/1 42/2/2 5/3/2
f 9/4/3 45/5/4 8/6/4
f 1/7/5 39/8/6 2/9/6
f 12/10/7 48/11/8 11/12/8
f 5/3/9 41/13/10 4/14/10
f 8/6/4 44/15/11 7/16/11
f 11/12/8 47/17/12 10/18/12
f 4/14/10 40/19/13 3/20/13
f 7/16/14 43/21/1 6/1/1
f 10/18/12 46/22/15 9/4/15
f 3/20/16 38/23/5 1/24/5
f 2/9/6 49/25/7 12/10/7
f 1/7/17 14/26/18 13/27/17
f 1/24/17 15/28/19 3/20/19
f 4/14/20 15/28/19 16/29/20
f 4/14/20 17/30/21 5/3/21
f 5/3/21 18/31/22 6/1/22
f 6/1/22 19/32/23 7/16/23
f 8/6/24 19/32/23 20/33/24
f 9/4/25 20/33/24 21/34/25
f 9/4/25 22/35/26 10/18/26
f 10/18/26 23/36/27 11/12/27
f 11/12/27 24/37/28 12/10/28
f 12/10/28 14/26/18 2/9/18
f 34/38/29 58/39/3 33/40/3
f 25/41/30 52/42/6 27/43/6
f 37/44/31 61/45/31 36/46/31
f 30/47/9 54/48/10 29/49/10
f 33/40/11 57/50/32 32/51/32
f 36/46/33 60/52/33 35/53/33
f 29/49/10 53/54/34 28/55/34
f 32/51/32 56/56/14 31/57/14
f 35/53/15 59/58/29 34/38/29
f 28/55/34 50/59/16 25/60/16
f 27/43/6 62/61/35 37/44/35
f 31/57/2 55/62/2 30/47/2
f 27/63/36 38/64/37 25/65/37
f 25/66/37 40/19/38 28/67/38
f 28/67/38 41/13/39 29/68/39
f 30/69/40 41/13/39 42/2/40
f 31/70/41 42/2/40 43/21/41
f 31/70/41 44/15/42 32/71/42
f 33/72/43 44/15/42 45/5/43
f 34/73/44 45/5/43 46/22/44
f 35/74/45 46/22/44 47/17/45
f 36/75/46 47/17/45 48/11/46
f 36/75/46 49/25/47 37/76/47
f 27/63/36 49/25/47 39/8/36
f 91/77/48 68/78/49 63/79/50
f 86/80/51 72/81/52 71/82/53
f 88/83/54 65/84/55 26/85/56
f 87/86/57 74/87/58 89/88/59
f 63/79/50 67/89/60 90/90/61
f 86/80/51 70/91/62 92/92/63
f 88/93/54 64/94/64 87/86/57
f 89/88/59 73/95/65 94/96/66
f 96/97/67 67/89/60 66/98/68
f 92/92/63 69/99/69 91/77/48
f 94/96/66 72/81/52 93/100/70
f 96/97/67 65/84/55 95/101/71
f 72/81/52 105/102/15 71/82/53
f 65/84/55 97/103/16 26/85/56
f 64/94/64 108/104/7 74/87/58
f 68/78/49 101/105/2 67/89/60
f 71/82/53 104/106/4 70/91/62
f 26/107/56 98/108/6 64/94/64
f 74/87/58 107/109/8 73/95/65
f 67/89/60 100/110/10 66/98/68
f 70/91/62 103/111/32 69/99/69
f 73/95/65 106/112/12 72/81/52
f 66/98/68 99/113/13 65/84/55
f 69/99/69 102/114/1 68/78/49
f 80/115/72 117/116/73 116/117/72
f 83/118/74 120/119/75 119/120/74
f 76/121/76 113/122/77 112/123/76
f 80/115/72 115/124/78 79/125/78
f 82/126/79 119/120/74 118/127/79
f 51/128/80 112/123/76 109/129/80
f 85/130/81 111/131/82 121/132/81
f 79/125/78 114/133/83 78/134/83
f 81/135/73 118/127/79 117/116/73
f 75/136/82 109/137/80 111/131/82
f 85/130/81 120/119/75 84/138/75
f 78/134/83 113/122/77 77/139/77
f 53/54/84 96/97/85 95/101/84
f 61/45/86 93/100/87 60/52/87
f 58/39/88 91/77/89 57/50/89
f 55/62/90 96/97/85 54/48/85
f 62/61/91 94/96/86 61/45/86
f 50/140/92 87/86/93 52/42/93
f 58/39/88 86/80/94 92/92/88
f 56/56/95 90/90/90 55/62/90
f 62/61/91 87/86/93 89/88/91
f 50/59/92 95/101/84 88/83/92
f 60/52/87 86/80/94 59/58/94
f 57/50/89 63/79/95 56/56/95
f 51/141/96 98/108/96 97/142/96
f 51/128/96 99/113/96 76/121/96
f 76/121/96 100/110/96 77/139/96
f 77/139/96 101/105/96 78/134/96
f 79/125/96 101/105/96 102/114/96
f 79/125/96 103/111/96 80/115/96
f 80/115/96 104/106/96 81/135/96
f 81/135/96 105/102/96 82/126/96
f 82/126/96 106/112/96 83/118/96
f 84/138/96 106/112/96 107/109/96
f 84/138/96 108/104/96 85/130/96
f 85/130/96 98/108/96 75/136/96
f 110/143/96 111/144/96 109/145/96
f 110/143/96 109/145/96 112/146/96
f 110/143/96 112/146/96 113/147/96
f 110/143/96 113/147/96 114/148/96
f 110/143/96 114/148/96 115/149/96
f 110/143/96 115/149/96 116/150/96
f 110/143/96 116/150/96 117/151/96
f 110/143/96 117/151/96 118/152/96
f 110/143/96 118/152/96 119/153/96
f 110/143/96 119/153/96 120/154/96
f 110/143/96 120/154/96 121/155/96
f 110/143/96 121/155/96 111/144/96
f 142/156/97 137/157/97 144/158/97
f 125/159/12 132/160/12 123/161/12
f 122/162/10 130/163/10 124/164/10
f 124/165/6 133/166/6 125/167/6
f 123/168/32 131/169/32 122/170/32
f 127/171/96 130/163/96 131/172/96
f 128/173/96 131/169/96 132/174/96
f 128/175/96 133/176/96 129/177/96
f 129/178/96 130/179/96 126/180/96
f 135/181/98 160/182/99 158/183/100
f 143/184/101 135/185/101 145/186/101
f 143/187/102 137/188/102 136/189/102
f 145/190/103 134/191/103 142/192/103
f 127/193/103 138/194/103 126/195/103
f 128/196/102 139/197/102 140/198/102
f 128/199/101 141/200/101 127/201/101
f 126/202/97 139/203/97 129/204/97
f 143/184/104 148/205/104 153/206/104
f 139/197/96 151/207/96 140/198/96
f 138/208/96 147/209/96 139/203/96
f 143/187/104 146/210/104 144/211/104
f 149/212/105 152/213/106 150/214/106
f 151/207/107 146/210/107 153/215/107
f 151/216/108 148/205/108 149/217/108
f 147/209/109 152/218/109 146/219/109
f 145/190/104 152/213/104 148/220/104
f 140/221/96 149/217/96 141/200/96
f 144/158/104 152/218/104 142/156/104
f 141/222/96 150/214/96 138/194/96
f 163/223/8 22/35/12 165/224/12
f 160/225/14 18/31/1 158/226/1
f 157/227/110 16/29/10 156/228/10
f 159/229/35 24/37/35 161/230/35
f 165/224/12 21/34/15 164/231/15
f 156/228/10 15/28/13 154/232/13
f 164/231/3 20/33/3 162/233/3
f 158/226/1 17/30/110 157/227/110
f 161/230/31 23/36/8 163/223/8
f 155/234/30 14/26/30 159/229/30
f 154/232/16 13/235/16 155/236/16
f 162/233/11 19/32/11 160/225/11
f 134/237/111 159/238/112 137/239/113
f 136/240/114 137/239/113 165/241/115
f 136/240/114 165/241/115 164/242/116
f 156/243/117 134/237/111 135/181/98
f 157/244/118 156/243/117 135/181/98
f 136/240/114 164/242/116 162/245/119
f 136/240/114 162/245/119 160/182/99
f 158/183/100 157/244/118 135/181/98
f 135/181/98 136/240/114 160/182/99
f 134/237/111 156/243/117 154/246/120
f 134/237/111 154/246/120 155/247/121
f 163/248/122 165/241/115 137/239/113
f 161/249/123 163/248/122 137/239/113
f 134/237/111 155/247/121 159/238/112
f 159/238/112 161/249/123 137/239/113
f 6/1/1 43/21/1 42/2/2
f 9/4/3 46/22/3 45/5/4
f 1/7/5 38/64/5 39/8/6
f 12/10/7 49/25/7 48/11/8
f 5/3/9 42/2/9 41/13/10
f 8/6/4 45/5/4 44/15/11
f 11/12/8 48/11/8 47/17/12
f 4/14/10 41/13/10 40/19/13
f 7/16/14 44/15/14 43/21/1
f 10/18/12 47/17/12 46/22/15
f 3/20/16 40/19/16 38/23/5
f 2/9/6 39/8/6 49/25/7
f 1/7/17 2/9/18 14/26/18
f 1/24/17 13/235/17 15/28/19
f 4/14/20 3/20/19 15/28/19
f 4/14/20 16/29/20 17/30/21
f 5/3/21 17/30/21 18/31/22
f 6/1/22 18/31/22 19/32/23
f 8/6/24 7/16/23 19/32/23
f 9/4/25 8/6/24 20/33/24
f 9/4/25 21/34/25 22/35/26
f 10/18/26 22/35/26 23/36/27
f 11/12/27 23/36/27 24/37/28
f 12/10/28 24/37/28 14/26/18
f 34/38/29 59/58/29 58/39/3
f 25/41/30 50/140/30 52/42/6
f 37/44/31 62/61/31 61/45/31
f 30/47/9 55/62/9 54/48/10
f 33/40/11 58/39/11 57/50/32
f 36/46/33 61/45/33 60/52/33
f 29/49/10 54/48/10 53/54/34
f 32/51/32 57/50/32 56/56/14
f 35/53/15 60/52/15 59/58/29
f 28/55/34 53/54/34 50/59/16
f 27/43/6 52/42/6 62/61/35
f 31/57/2 56/56/2 55/62/2
f 27/63/36 39/8/36 38/64/37
f 25/66/37 38/23/37 40/19/38
f 28/67/38 40/19/38 41/13/39
f 30/69/40 29/68/39 41/13/39
f 31/70/41 30/69/40 42/2/40
f 31/70/41 43/21/41 44/15/42
f 33/72/43 32/71/42 44/15/42
f 34/73/44 33/72/43 45/5/43
f 35/74/45 34/73/44 46/22/44
f 36/75/46 35/74/45 47/17/45
f 36/75/46 48/11/46 49/25/47
f 27/63/36 37/76/47 49/25/47
f 91/77/48 69/99/69 68/78/49
f 86/80/51 93/100/70 72/81/52
f 88/83/54 95/101/71 65/84/55
f 87/86/57 64/94/64 74/87/58
f 63/79/50 68/78/49 67/89/60
f 86/80/51 71/82/53 70/91/62
f 88/93/54 26/107/56 64/94/64
f 89/88/59 74/87/58 73/95/65
f 96/97/67 90/90/61 67/89/60
f 92/92/63 70/91/62 69/99/69
f 94/96/66 73/95/65 72/81/52
f 96/97/67 66/98/68 65/84/55
f 72/81/52 106/112/12 105/102/15
f 65/84/55 99/113/16 97/103/16
f 64/94/64 98/108/6 108/104/7
f 68/78/49 102/114/1 101/105/2
f 71/82/53 105/102/3 104/106/4
f 26/107/56 97/142/30 98/108/6
f 74/87/58 108/104/7 107/109/8
f 67/89/60 101/105/9 100/110/10
f 70/91/62 104/106/4 103/111/32
f 73/95/65 107/109/8 106/112/12
f 66/98/68 100/110/10 99/113/13
f 69/99/69 103/111/32 102/114/1
f 80/115/72 81/135/73 117/116/73
f 83/118/74 84/138/75 120/119/75
f 76/121/76 77/139/77 113/122/77
f 80/115/72 116/117/72 115/124/78
f 82/126/79 83/118/74 119/120/74
f 51/128/80 76/121/76 112/123/76
f 85/130/81 75/136/82 111/131/82
f 79/125/78 115/124/78 114/133/83
f 81/135/73 82/126/79 118/127/79
f 75/136/82 51/141/80 109/137/80
f 85/130/81 121/132/81 120/119/75
f 78/134/83 114/133/83 113/122/77
f 53/54/84 54/48/85 96/97/85
f 61/45/86 94/96/86 93/100/87
f 58/39/88 92/92/88 91/77/89
f 55/62/90 90/90/90 96/97/85
f 62/61/91 89/88/91 94/96/86
f 50/140/92 88/93/92 87/86/93
f 58/39/88 59/58/94 86/80/94
f 56/56/95 63/79/95 90/90/90
f 62/61/91 52/42/93 87/86/93
f 50/59/92 53/54/84 95/101/84
f 60/52/87 93/100/87 86/80/94
f 57/50/89 91/77/89 63/79/95
f 51/141/96 75/136/96 98/108/96
f 51/128/96 97/103/96 99/113/96
f 76/121/96 99/113/96 100/110/96
f 77/139/96 100/110/96 101/105/96
f 79/125/96 78/134/96 101/105/96
f 79/125/96 102/114/96 103/111/96
f 80/115/96 103/111/96 104/106/96
f 81/135/96 104/106/96 105/102/96
f 82/126/96 105/102/96 106/112/96
f 84/138/96 83/118/96 106/112/96
f 84/138/96 107/109/96 108/104/96
f 85/130/96 108/104/96 98/108/96
f 142/156/97 134/250/97 137/157/97
f 125/159/12 133/176/12 132/160/12
f 122/162/10 131/172/10 130/163/10
f 124/165/6 130/179/6 133/166/6
f 123/168/32 132/174/32 131/169/32
f 127/171/96 126/251/96 130/163/96
f 128/173/96 127/252/96 131/169/96
f 128/175/96 132/160/96 133/176/96
f 129/178/96 133/166/96 130/179/96
f 143/184/101 136/253/101 135/185/101
f 143/187/102 144/211/102 137/188/102
f 145/190/103 135/254/103 134/191/103
f 127/193/103 141/222/103 138/194/103
f 128/196/102 129/255/102 139/197/102
f 128/199/101 140/221/101 141/200/101
f 126/202/97 138/208/97 139/203/97
f 143/184/104 145/186/104 148/205/104
f 139/197/96 147/256/96 151/207/96
f 138/208/96 150/257/96 147/209/96
f 143/187/104 153/215/104 146/210/104
f 149/212/105 148/220/105 152/213/106
f 151/207/107 147/256/107 146/210/107
f 151/216/108 153/206/108 148/205/108
f 147/209/109 150/257/109 152/218/109
f 145/190/104 142/192/104 152/213/104
f 140/221/96 151/216/96 149/217/96
f 144/158/104 146/219/104 152/218/104
f 141/222/96 149/212/96 150/214/96
f 163/223/8 23/36/8 22/35/12
f 160/225/14 19/32/14 18/31/1
f 157/227/110 17/30/110 16/29/10
f 159/229/35 14/26/35 24/37/35
f 165/224/12 22/35/12 21/34/15
f 156/228/10 16/29/10 15/28/13
f 164/231/3 21/34/3 20/33/3
f 158/226/1 18/31/1 17/30/110
f 161/230/31 24/37/31 23/36/8
f 155/234/30 13/27/30 14/26/30
f 154/232/16 15/28/16 13/235/16
f 162/233/11 20/33/11 19/32/11

# 324 faces
