# Blender 3.3.21
# www.blender.org
mtllib COLUMN.mtl
o Column
v 0.143301 0.050000 0.000000
v 0.124103 0.050000 -0.071651
v 0.071651 0.050000 -0.124103
v 0.000000 0.050000 -0.143301
v -0.071651 0.050000 -0.124103
v -0.124103 0.050000 -0.071651
v -0.143301 0.050000 0.000000
v -0.124103 0.050000 0.071651
v -0.071651 0.050000 0.124103
v 0.000000 0.050000 0.143301
v 0.071651 0.050000 0.124103
v 0.124103 0.050000 0.071651
v 0.143301 1.200000 0.000000
v 0.124103 1.200000 -0.071651
v 0.071651 1.200000 -0.124103
v 0.000000 1.200000 -0.143301
v -0.071651 1.200000 -0.124103
v -0.124103 1.200000 -0.071651
v -0.143301 1.200000 0.000000
v -0.124103 1.200000 0.071651
v -0.071651 1.200000 0.124103
v 0.000000 1.200000 0.143301
v 0.071651 1.200000 0.124103
v 0.124103 1.200000 0.071651
v 0.143301 2.350000 0.000000
v 0.124103 2.350000 -0.071651
v 0.071651 2.350000 -0.124103
v 0.000000 2.350000 -0.143301
v -0.071651 2.350000 -0.124103
v -0.124103 2.350000 -0.071651
v -0.143301 2.350000 0.000000
v -0.124103 2.350000 0.071651
v -0.071651 2.350000 0.124103
v 0.000000 2.350000 0.143301
v 0.071651 2.350000 0.124103
v 0.124103 2.350000 0.071651
v 0.142059 0.050000 -0.018698
v 0.138389 0.050000 -0.037081
v 0.132376 0.050000 -0.054837
v 0.113678 0.050000 -0.087222
v 0.101308 0.050000 -0.101308
v 0.087222 0.050000 -0.113678
v 0.054837 0.050000 -0.132376
v 0.037081 0.050000 -0.138389
v 0.018698 0.050000 -0.142059
v -0.018698 0.050000 -0.142059
v -0.037081 0.050000 -0.138389
v -0.054837 0.050000 -0.132376
v -0.087222 0.050000 -0.113678
v -0.101308 0.050000 -0.101308
v -0.113678 0.050000 -0.087222
v -0.132376 0.050000 -0.054837
v -0.138389 0.050000 -0.037081
v -0.142059 0.050000 -0.018698
v -0.142059 0.050000 0.018698
v -0.138389 0.050000 0.037081
v -0.132376 0.050000 0.054837
v -0.113678 0.050000 0.087222
v -0.101308 0.050000 0.101308
v -0.087222 0.050000 0.113678
v -0.054837 0.050000 0.132376
v -0.037081 0.050000 0.138389
v -0.018698 0.050000 0.142059
v -0.113678 2.350000 0.087222
v -0.101308 2.350000 0.101308
v -0.087222 2.350000 0.113678
v 0.087222 0.050000 0.113678
v 0.101308 0.050000 0.101308
v 0.113678 0.050000 0.087222
v 0.143301 0.337500 0.000000
v 0.143301 0.625000 0.000000
v 0.143301 0.912500 0.000000
v 0.124103 0.337500 -0.071651
v 0.124103 0.625000 -0.071651
v 0.124103 0.912500 -0.071651
v 0.071651 0.337500 -0.124103
v 0.071651 0.625000 -0.124103
v 0.071651 0.912500 -0.124103
v -0.000000 0.337500 -0.143301
v 0.000000 0.625000 -0.143301
v 0.000000 0.912500 -0.143301
v -0.071651 0.337500 -0.124103
v -0.071651 0.625000 -0.124103
v -0.071651 0.912500 -0.124103
v -0.124103 0.337500 -0.071651
v -0.124103 0.625000 -0.071651
v -0.124103 0.912500 -0.071651
v -0.143301 0.337500 0.000000
v -0.143301 0.625000 0.000000
v -0.143301 0.912500 -0.000000
v -0.124103 0.337500 0.071651
v -0.124103 0.625000 0.071651
v -0.124103 0.912500 0.071651
v -0.071651 0.337500 0.124103
v -0.071651 0.625000 0.124103
v -0.071651 0.912500 0.124103
v -0.054837 1.200000 0.132376
v -0.037081 1.200000 0.138389
v -0.018698 1.200000 0.142059
v 0.071651 0.337500 0.124103
v 0.071651 0.625000 0.124103
v 0.071651 0.912500 0.124103
v 0.018698 1.200000 0.142059
v 0.037081 1.200000 0.138389
v 0.054837 1.200000 0.132376
v 0.143301 1.487500 0.000000
v 0.143301 1.775000 0.000000
v 0.143301 2.062500 -0.000000
v 0.124103 1.487500 -0.071651
v 0.124103 1.775000 -0.071651
v 0.124103 2.062500 -0.071651
v 0.071651 1.487500 -0.124103
v 0.071651 1.775000 -0.124103
v 0.071651 2.062500 -0.124103
v 0.000000 1.487500 -0.143301
v -0.000000 1.775000 -0.143301
v -0.000000 2.062500 -0.143301
v -0.071651 1.487500 -0.124103
v -0.071651 1.775000 -0.124103
v -0.071651 2.062500 -0.124103
v -0.124103 1.487500 -0.071651
v -0.124103 1.775000 -0.071651
v -0.124103 2.062500 -0.071651
v -0.143301 1.487500 -0.000000
v -0.143301 1.775000 0.000000
v -0.143301 2.062500 0.000000
v -0.124103 1.487500 0.071651
v -0.124103 1.775000 0.071651
v -0.124103 2.062500 0.071651
v -0.071651 1.487500 0.124103
v -0.071651 1.775000 0.124103
v -0.071651 2.062500 0.124103
v -0.000000 1.487500 0.143301
v 0.000000 1.775000 0.143301
v 0.000000 2.062500 0.143301
v 0.142059 1.200000 -0.018698
v 0.138389 1.200000 -0.037081
v 0.132376 1.200000 -0.054837
v 0.124103 1.487500 0.071651
v 0.124103 1.775000 0.071651
v 0.124103 2.062500 0.071651
v 0.087222 1.200000 0.113678
v 0.101308 1.200000 0.101308
v 0.113678 1.200000 0.087222
v -0.054837 2.350000 0.132376
v -0.037081 2.350000 0.138389
v -0.018698 2.350000 0.142059
v 0.113678 1.200000 -0.087222
v 0.101308 1.200000 -0.101308
v 0.087222 1.200000 -0.113678
v 0.000000 0.337500 0.143301
v 0.000000 0.625000 0.143301
v -0.000000 0.912500 0.143301
v 0.018698 2.350000 0.142059
v 0.037081 2.350000 0.138389
v 0.054837 2.350000 0.132376
v 0.142059 0.050000 0.018698
v 0.138389 0.050000 0.037081
v 0.132376 0.050000 0.054837
v 0.054837 1.200000 -0.132376
v 0.037081 1.200000 -0.138389
v 0.018698 1.200000 -0.142059
v 0.142059 2.350000 -0.018698
v 0.138389 2.350000 -0.037081
v 0.132376 2.350000 -0.054837
v 0.087222 2.350000 0.113678
v 0.101308 2.350000 0.101308
v 0.113678 2.350000 0.087222
v -0.142059 2.350000 0.018698
v -0.138389 2.350000 0.037081
v -0.132376 2.350000 0.054837
v -0.018698 1.200000 -0.142059
v -0.037081 1.200000 -0.138389
v -0.054837 1.200000 -0.132376
v 0.113678 2.350000 -0.087222
v 0.101308 2.350000 -0.101308
v 0.087222 2.350000 -0.113678
v 0.124103 0.337500 0.071651
v 0.124103 0.625000 0.071651
v 0.124103 0.912500 0.071651
v 0.142059 1.200000 0.018698
v 0.138389 1.200000 0.037081
v 0.132376 1.200000 0.054837
v -0.087222 1.200000 -0.113678
v -0.101308 1.200000 -0.101308
v -0.113678 1.200000 -0.087222
v 0.054837 2.350000 -0.132376
v 0.037081 2.350000 -0.138389
v 0.018698 2.350000 -0.142059
v 0.071651 1.487500 0.124103
v 0.071651 1.775000 0.124103
v 0.071651 2.062500 0.124103
v -0.132376 1.200000 -0.054837
v -0.138389 1.200000 -0.037081
v -0.142059 1.200000 -0.018698
v -0.018698 2.350000 -0.142059
v -0.037081 2.350000 -0.138389
v -0.054837 2.350000 -0.132376
v -0.142059 1.200000 0.018698
v -0.138389 1.200000 0.037081
v -0.132376 1.200000 0.054837
v 0.142059 2.350000 0.018698
v 0.138389 2.350000 0.037081
v 0.132376 2.350000 0.054837
v -0.087222 2.350000 -0.113678
v -0.101308 2.350000 -0.101308
v -0.113678 2.350000 -0.087222
v 0.018698 0.050000 0.142059
v 0.037081 0.050000 0.138389
v 0.054837 0.050000 0.132376
v -0.113678 1.200000 0.087222
v -0.101308 1.200000 0.101308
v -0.087222 1.200000 0.113678
v -0.132376 2.350000 -0.054837
v -0.138389 2.350000 -0.037081
v -0.142059 2.350000 -0.018698
v 0.142059 0.337500 -0.018698
v 0.138389 0.337500 -0.037081
v 0.132376 0.337500 -0.054837
v 0.142059 0.625000 -0.018698
v 0.138389 0.625000 -0.037081
v 0.132376 0.625000 -0.054837
v 0.142059 0.912500 -0.018698
v 0.138389 0.912500 -0.037081
v 0.132376 0.912500 -0.054837
v 0.113678 0.337500 -0.087222
v 0.101308 0.337500 -0.101308
v 0.087222 0.337500 -0.113678
v 0.113678 0.625000 -0.087222
v 0.101308 0.625000 -0.101308
v 0.087222 0.625000 -0.113678
v 0.113678 0.912500 -0.087222
v 0.101308 0.912500 -0.101308
v 0.087222 0.912500 -0.113678
v 0.054837 0.337500 -0.132376
v 0.037081 0.337500 -0.138389
v 0.018698 0.337500 -0.142059
v 0.054837 0.625000 -0.132376
v 0.037081 0.625000 -0.138389
v 0.018698 0.625000 -0.142059
v 0.054837 0.912500 -0.132376
v 0.037081 0.912500 -0.138389
v 0.018698 0.912500 -0.142059
v -0.018698 0.337500 -0.142059
v -0.037081 0.337500 -0.138389
v -0.054837 0.337500 -0.132376
v -0.018698 0.625000 -0.142059
v -0.037081 0.625000 -0.138389
v -0.054837 0.625000 -0.132376
v -0.018698 0.912500 -0.142059
v -0.037081 0.912500 -0.138389
v -0.054837 0.912500 -0.132376
v -0.087222 0.337500 -0.113678
v -0.101308 0.337500 -0.101308
v -0.113678 0.337500 -0.087222
v -0.087222 0.625000 -0.113678
v -0.101308 0.625000 -0.101308
v -0.113678 0.625000 -0.087222
v -0.087222 0.912500 -0.113678
v -0.101308 0.912500 -0.101308
v -0.113678 0.912500 -0.087222
v -0.132376 0.337500 -0.054837
v -0.138389 0.337500 -0.037081
v -0.142059 0.337500 -0.018698
v -0.132376 0.625000 -0.054837
v -0.138389 0.625000 -0.037081
v -0.142059 0.625000 -0.018698
v -0.132376 0.912500 -0.054837
v -0.138389 0.912500 -0.037081
v -0.142059 0.912500 -0.018698
v -0.142059 0.337500 0.018698
v -0.138389 0.337500 0.037081
v -0.132376 0.337500 0.054837
v -0.142059 0.625000 0.018698
v -0.138389 0.625000 0.037081
v -0.132376 0.625000 0.054837
v -0.142059 0.912500 0.018698
v -0.138389 0.912500 0.037081
v -0.132376 0.912500 0.054837
v -0.113678 0.337500 0.087222
v -0.101308 0.337500 0.101308
v -0.087222 0.337500 0.113678
v -0.113678 0.625000 0.087222
v -0.101308 0.625000 0.101308
v -0.087222 0.625000 0.113678
v -0.113678 0.912500 0.087222
v -0.101308 0.912500 0.101308
v -0.087222 0.912500 0.113678
v -0.054837 0.337500 0.132376
v -0.037081 0.337500 0.138389
v -0.018698 0.337500 0.142059
v -0.054837 0.625000 0.132376
v -0.037081 0.625000 0.138389
v -0.018698 0.625000 0.142059
v -0.054837 0.912500 0.132376
v -0.037081 0.912500 0.138389
v -0.018698 0.912500 0.142059
v 0.018698 0.337500 0.142059
v 0.037081 0.337500 0.138389
v 0.054837 0.337500 0.132376
v 0.018698 0.625000 0.142059
v 0.037081 0.625000 0.138389
v 0.054837 0.625000 0.132376
v 0.018698 0.912500 0.142059
v 0.037081 0.912500 0.138389
v 0.054837 0.912500 0.132376
v 0.087222 0.337500 0.113678
v 0.101308 0.337500 0.101308
v 0.113678 0.337500 0.087222
v 0.087222 0.625000 0.113678
v 0.101308 0.625000 0.101308
v 0.113678 0.625000 0.087222
v 0.087222 0.912500 0.113678
v 0.101308 0.912500 0.101308
v 0.113678 0.912500 0.087222
v 0.132376 0.337500 0.054837
v 0.138389 0.337500 0.037081
v 0.142059 0.337500 0.018698
v 0.132376 0.625000 0.054837
v 0.138389 0.625000 0.037081
v 0.142059 0.625000 0.018698
v 0.132376 0.912500 0.054837
v 0.138389 0.912500 0.037081
v 0.142059 0.912500 0.018698
v 0.142059 1.487500 -0.018698
v 0.138389 1.487500 -0.037081
v 0.132376 1.487500 -0.054837
v 0.142059 1.775000 -0.018698
v 0.138389 1.775000 -0.037081
v 0.132376 1.775000 -0.054837
v 0.142059 2.062500 -0.018698
v 0.138389 2.062500 -0.037081
v 0.132376 2.062500 -0.054837
v 0.113678 1.487500 -0.087222
v 0.101308 1.487500 -0.101308
v 0.087222 1.487500 -0.113678
v 0.113678 1.775000 -0.087222
v 0.101308 1.775000 -0.101308
v 0.087222 1.775000 -0.113678
v 0.113678 2.062500 -0.087222
v 0.101308 2.062500 -0.101308
v 0.087222 2.062500 -0.113678
v 0.054837 1.487500 -0.132376
v 0.037081 1.487500 -0.138389
v 0.018698 1.487500 -0.142059
v 0.054837 1.775000 -0.132376
v 0.037081 1.775000 -0.138389
v 0.018698 1.775000 -0.142059
v 0.054837 2.062500 -0.132376
v 0.037081 2.062500 -0.138389
v 0.018698 2.062500 -0.142059
v -0.018698 1.487500 -0.142059
v -0.037081 1.487500 -0.138389
v -0.054837 1.487500 -0.132376
v -0.018698 1.775000 -0.142059
v -0.037081 1.775000 -0.138389
v -0.054837 1.775000 -0.132376
v -0.018698 2.062500 -0.142059
v -0.037081 2.062500 -0.138389
v -0.054837 2.062500 -0.132376
v -0.087222 1.487500 -0.113678
v -0.101308 1.487500 -0.101308
v -0.113678 1.487500 -0.087222
v -0.087222 1.775000 -0.113678
v -0.101308 1.775000 -0.101308
v -0.113678 1.775000 -0.087222
v -0.087222 2.062500 -0.113678
v -0.101308 2.062500 -0.101308
v -0.113678 2.062500 -0.087222
v -0.132376 1.487500 -0.054837
v -0.138389 1.487500 -0.037081
v -0.142059 1.487500 -0.018698
v -0.132376 1.775000 -0.054837
v -0.138389 1.775000 -0.037081
v -0.142059 1.775000 -0.018698
v -0.132376 2.062500 -0.054837
v -0.138389 2.062500 -0.037081
v -0.142059 2.062500 -0.018698
v -0.142059 1.487500 0.018698
v -0.138389 1.487500 0.037081
v -0.132376 1.487500 0.054837
v -0.142059 1.775000 0.018698
v -0.138389 1.775000 0.037081
v -0.132376 1.775000 0.054837
v -0.142059 2.062500 0.018698
v -0.138389 2.062500 0.037081
v -0.132376 2.062500 0.054837
v -0.113678 1.487500 0.087222
v -0.101308 1.487500 0.101308
v -0.087222 1.487500 0.113678
v -0.113678 1.775000 0.087222
v -0.101308 1.775000 0.101308
v -0.087222 1.775000 0.113678
v -0.113678 2.062500 0.087222
v -0.101308 2.062500 0.101308
v -0.087222 2.062500 0.113678
v -0.054837 1.487500 0.132376
v -0.037081 1.487500 0.138389
v -0.018698 1.487500 0.142059
v -0.054837 1.775000 0.132376
v -0.037081 1.775000 0.138389
v -0.018698 1.775000 0.142059
v -0.054837 2.062500 0.132376
v -0.037081 2.062500 0.138389
v -0.018698 2.062500 0.142059
v 0.018698 1.487500 0.142059
v 0.037081 1.487500 0.138389
v 0.054837 1.487500 0.132376
v 0.018698 1.775000 0.142059
v 0.037081 1.775000 0.138389
v 0.054837 1.775000 0.132376
v 0.018698 2.062500 0.142059
v 0.037081 2.062500 0.138389
v 0.054837 2.062500 0.132376
v 0.087222 1.487500 0.113678
v 0.101308 1.487500 0.101308
v 0.113678 1.487500 0.087222
v 0.087222 1.775000 0.113678
v 0.101308 1.775000 0.101308
v 0.113678 1.775000 0.087222
v 0.087222 2.062500 0.113678
v 0.101308 2.062500 0.101308
v 0.113678 2.062500 0.087222
v 0.132376 1.487500 0.054837
v 0.138389 1.487500 0.037081
v 0.142059 1.487500 0.018698
v 0.132376 1.775000 0.054837
v 0.138389 1.775000 0.037081
v 0.142059 1.775000 0.018698
v 0.132376 2.062500 0.054837
v 0.138389 2.062500 0.037081
v 0.142059 2.062500 0.018698
vn 0.9913 -0.0000 -0.1313
vn 0.9659 -0.0000 -0.2588
vn 0.9242 -0.0000 -0.3820
vn 1.0000 -0.0000 -0.0000
vn 0.8660 -0.0000 -0.5000
vn 0.7929 -0.0000 -0.6094
vn 0.7071 -0.0000 -0.7071
vn 0.6094 -0.0000 -0.7929
vn 0.5000 -0.0000 -0.8660
vn 0.3820 -0.0000 -0.9242
vn 0.2588 -0.0000 -0.9659
vn 0.1313 -0.0000 -0.9913
vn -0.0000 -0.0000 -1.0000
vn -0.1313 -0.0000 -0.9913
vn -0.2588 -0.0000 -0.9659
vn -0.3820 -0.0000 -0.9242
vn -0.5000 -0.0000 -0.8660
vn -0.6094 -0.0000 -0.7929
vn -0.7071 -0.0000 -0.7071
vn -0.7929 -0.0000 -0.6094
vn -0.8660 -0.0000 -0.5000
vn -0.9242 -0.0000 -0.3820
vn -0.9659 -0.0000 -0.2588
vn -0.9913 -0.0000 -0.1313
vn -1.0000 -0.0000 -0.0000
vn -0.9913 -0.0000 0.1313
vn -0.9659 -0.0000 0.2588
vn -0.9242 -0.0000 0.3820
vn -0.8660 -0.0000 0.5000
vn -0.7929 -0.0000 0.6094
vn -0.7071 -0.0000 0.7071
vn -0.6094 -0.0000 0.7929
vn -0.5000 -0.0000 0.8660
vn -0.3820 -0.0000 0.9242
vn -0.2588 -0.0000 0.9659
vn -0.1313 -0.0000 0.9913
vn -0.0000 -0.0000 1.0000
vn 0.1313 -0.0000 0.9913
vn 0.2588 -0.0000 0.9659
vn 0.3820 -0.0000 0.9242
vn 0.5000 -0.0000 0.8660
vn 0.6094 -0.0000 0.7929
vn 0.7071 -0.0000 0.7071
vn 0.7929 -0.0000 0.6094
vn 0.8660 -0.0000 0.5000
vn 0.9242 -0.0000 0.3820
vn 0.9659 -0.0000 0.2588
vn 0.9913 -0.0000 0.1313
vt 0.500000 0.000000
vt 0.532609 0.000000
vt 0.556480 0.000000
vt 0.532609 0.000000
vt 0.500000 0.000000
vt 0.467391 0.000000
vt 0.443520 0.000000
vt 0.532609 0.000000
vt 0.500000 0.000000
vt 0.467391 0.000000
vt 0.443520 0.000000
vt 0.467391 0.000000
vt 0.500000 0.000000
vt 0.532609 0.000000
vt 0.556480 0.000000
vt 0.467391 0.000000
vt 0.500000 0.500000
vt 0.532609 0.500000
vt 0.556480 0.500000
vt 0.531152 0.500000
vt 0.500000 0.500000
vt 0.468848 0.500000
vt 0.443520 0.500000
vt 0.532609 0.500000
vt 0.500000 0.500000
vt 0.467391 0.500000
vt 0.443520 0.500000
vt 0.468848 0.500000
vt 0.500000 0.500000
vt 0.531152 0.500000
vt 0.556480 0.500000
vt 0.467391 0.500000
vt 0.500000 1.000000
vt 0.532609 1.000000
vt 0.556480 1.000000
vt 0.532609 1.000000
vt 0.500000 1.000000
vt 0.467391 1.000000
vt 0.443520 1.000000
vt 0.532609 1.000000
vt 0.500000 1.000000
vt 0.467391 1.000000
vt 0.443520 1.000000
vt 0.467391 1.000000
vt 0.500000 1.000000
vt 0.532609 1.000000
vt 0.556480 1.000000
vt 0.467391 1.000000
vt 0.508152 0.000000
vt 0.516304 0.000000
vt 0.524457 0.000000
vt 0.550512 0.000000
vt 0.544544 0.000000
vt 0.538577 0.000000
vt 0.524457 0.000000
vt 0.516304 0.000000
vt 0.508152 0.000000
vt 0.491848 0.000000
vt 0.483696 0.000000
vt 0.475544 0.000000
vt 0.461424 0.000000
vt 0.455456 0.000000
vt 0.449488 0.000000
vt 0.524457 0.000000
vt 0.516304 0.000000
vt 0.508152 0.000000
vt 0.491848 0.000000
vt 0.483696 0.000000
vt 0.475544 0.000000
vt 0.449488 0.000000
vt 0.455456 0.000000
vt 0.461424 0.000000
vt 0.475544 0.000000
vt 0.483696 0.000000
vt 0.491848 0.000000
vt 0.449488 1.000000
vt 0.455456 1.000000
vt 0.461424 1.000000
vt 0.538577 0.000000
vt 0.544544 0.000000
vt 0.550512 0.000000
vt 0.500000 0.125000
vt 0.500000 0.250000
vt 0.500000 0.375000
vt 0.532609 0.125000
vt 0.556480 0.125000
vt 0.532609 0.250000
vt 0.556480 0.250000
vt 0.532609 0.375000
vt 0.556480 0.375000
vt 0.531592 0.125000
vt 0.531274 0.250000
vt 0.531168 0.375000
vt 0.500000 0.125000
vt 0.500000 0.250000
vt 0.500000 0.375000
vt 0.468408 0.125000
vt 0.468726 0.250000
vt 0.468832 0.375000
vt 0.443520 0.125000
vt 0.532609 0.125000
vt 0.443520 0.250000
vt 0.532609 0.250000
vt 0.443520 0.375000
vt 0.532609 0.375000
vt 0.500000 0.125000
vt 0.500000 0.250000
vt 0.500000 0.375000
vt 0.467391 0.125000
vt 0.443520 0.125000
vt 0.467391 0.250000
vt 0.443520 0.250000
vt 0.467391 0.375000
vt 0.443520 0.375000
vt 0.468408 0.125000
vt 0.468726 0.250000
vt 0.468832 0.375000
vt 0.476158 0.500000
vt 0.483878 0.500000
vt 0.491871 0.500000
vt 0.531592 0.125000
vt 0.531274 0.250000
vt 0.531168 0.375000
vt 0.508130 0.500000
vt 0.516122 0.500000
vt 0.523842 0.500000
vt 0.500000 0.625000
vt 0.500000 0.750000
vt 0.500000 0.875000
vt 0.532609 0.625000
vt 0.556480 0.625000
vt 0.532609 0.750000
vt 0.556480 0.750000
vt 0.532609 0.875000
vt 0.556480 0.875000
vt 0.531168 0.625000
vt 0.531274 0.750000
vt 0.531592 0.875000
vt 0.500000 0.625000
vt 0.500000 0.750000
vt 0.500000 0.875000
vt 0.468832 0.625000
vt 0.468726 0.750000
vt 0.468408 0.875000
vt 0.443520 0.625000
vt 0.532609 0.625000
vt 0.443520 0.750000
vt 0.532609 0.750000
vt 0.443520 0.875000
vt 0.532609 0.875000
vt 0.500000 0.625000
vt 0.500000 0.750000
vt 0.500000 0.875000
vt 0.467391 0.625000
vt 0.443520 0.625000
vt 0.467391 0.750000
vt 0.443520 0.750000
vt 0.467391 0.875000
vt 0.443520 0.875000
vt 0.468832 0.625000
vt 0.468726 0.750000
vt 0.468408 0.875000
vt 0.500000 0.625000
vt 0.500000 0.750000
vt 0.500000 0.875000
vt 0.508152 0.500000
vt 0.516304 0.500000
vt 0.524457 0.500000
vt 0.556480 0.625000
vt 0.467391 0.625000
vt 0.556480 0.750000
vt 0.467391 0.750000
vt 0.556480 0.875000
vt 0.467391 0.875000
vt 0.537962 0.500000
vt 0.544362 0.500000
vt 0.550489 0.500000
vt 0.475544 1.000000
vt 0.483696 1.000000
vt 0.491848 1.000000
vt 0.550489 0.500000
vt 0.544362 0.500000
vt 0.537962 0.500000
vt 0.500000 0.125000
vt 0.500000 0.250000
vt 0.500000 0.375000
vt 0.508152 1.000000
vt 0.516304 1.000000
vt 0.524457 1.000000
vt 0.491848 0.000000
vt 0.483696 0.000000
vt 0.475544 0.000000
vt 0.523842 0.500000
vt 0.516122 0.500000
vt 0.508129 0.500000
vt 0.508152 1.000000
vt 0.516304 1.000000
vt 0.524457 1.000000
vt 0.538577 1.000000
vt 0.544544 1.000000
vt 0.550512 1.000000
vt 0.491848 1.000000
vt 0.483696 1.000000
vt 0.475544 1.000000
vt 0.491871 0.500000
vt 0.483878 0.500000
vt 0.476158 0.500000
vt 0.550512 1.000000
vt 0.544544 1.000000
vt 0.538577 1.000000
vt 0.556480 0.125000
vt 0.467391 0.125000
vt 0.556480 0.250000
vt 0.467391 0.250000
vt 0.556480 0.375000
vt 0.467391 0.375000
vt 0.491848 0.500000
vt 0.483696 0.500000
vt 0.475543 0.500000
vt 0.462038 0.500000
vt 0.455638 0.500000
vt 0.449511 0.500000
vt 0.524457 1.000000
vt 0.516304 1.000000
vt 0.508152 1.000000
vt 0.531168 0.625000
vt 0.531274 0.750000
vt 0.531592 0.875000
vt 0.524457 0.500000
vt 0.516304 0.500000
vt 0.508152 0.500000
vt 0.491848 1.000000
vt 0.483696 1.000000
vt 0.475544 1.000000
vt 0.491848 0.500000
vt 0.483696 0.500000
vt 0.475544 0.500000
vt 0.491848 1.000000
vt 0.483696 1.000000
vt 0.475544 1.000000
vt 0.461424 1.000000
vt 0.455456 1.000000
vt 0.449488 1.000000
vt 0.508152 0.000000
vt 0.516304 0.000000
vt 0.524457 0.000000
vt 0.449511 0.500000
vt 0.455638 0.500000
vt 0.462038 0.500000
vt 0.524457 1.000000
vt 0.516304 1.000000
vt 0.508152 1.000000
vt 0.508152 0.125000
vt 0.516304 0.125000
vt 0.524457 0.125000
vt 0.508152 0.250000
vt 0.516304 0.250000
vt 0.524457 0.250000
vt 0.508152 0.375000
vt 0.516304 0.375000
vt 0.524457 0.375000
vt 0.550501 0.125000
vt 0.544457 0.125000
vt 0.538250 0.125000
vt 0.550493 0.250000
vt 0.544393 0.250000
vt 0.538049 0.250000
vt 0.550490 0.375000
vt 0.544366 0.375000
vt 0.537973 0.375000
vt 0.524130 0.125000
vt 0.516217 0.125000
vt 0.508141 0.125000
vt 0.523929 0.250000
vt 0.516153 0.250000
vt 0.508133 0.250000
vt 0.523853 0.375000
vt 0.516126 0.375000
vt 0.508130 0.375000
vt 0.491859 0.125000
vt 0.483783 0.125000
vt 0.475870 0.125000
vt 0.491867 0.250000
vt 0.483847 0.250000
vt 0.476071 0.250000
vt 0.491870 0.375000
vt 0.483874 0.375000
vt 0.476147 0.375000
vt 0.461750 0.125000
vt 0.455543 0.125000
vt 0.449499 0.125000
vt 0.461951 0.250000
vt 0.455607 0.250000
vt 0.449507 0.250000
vt 0.462027 0.375000
vt 0.455634 0.375000
vt 0.449510 0.375000
vt 0.524457 0.125000
vt 0.516304 0.125000
vt 0.508152 0.125000
vt 0.524457 0.250000
vt 0.516304 0.250000
vt 0.508152 0.250000
vt 0.524457 0.375000
vt 0.516304 0.375000
vt 0.508152 0.375000
vt 0.491848 0.125000
vt 0.483696 0.125000
vt 0.475544 0.125000
vt 0.491848 0.250000
vt 0.483696 0.250000
vt 0.475543 0.250000
vt 0.491848 0.375000
vt 0.483696 0.375000
vt 0.475543 0.375000
vt 0.449499 0.125000
vt 0.455543 0.125000
vt 0.461750 0.125000
vt 0.449507 0.250000
vt 0.455607 0.250000
vt 0.461951 0.250000
vt 0.449510 0.375000
vt 0.455634 0.375000
vt 0.462027 0.375000
vt 0.475870 0.125000
vt 0.483783 0.125000
vt 0.491859 0.125000
vt 0.476071 0.250000
vt 0.483847 0.250000
vt 0.491867 0.250000
vt 0.476147 0.375000
vt 0.483874 0.375000
vt 0.491870 0.375000
vt 0.508141 0.125000
vt 0.516217 0.125000
vt 0.524130 0.125000
vt 0.508133 0.250000
vt 0.516153 0.250000
vt 0.523929 0.250000
vt 0.508130 0.375000
vt 0.516126 0.375000
vt 0.523853 0.375000
vt 0.538250 0.125000
vt 0.544457 0.125000
vt 0.550501 0.125000
vt 0.538049 0.250000
vt 0.544393 0.250000
vt 0.550493 0.250000
vt 0.537973 0.375000
vt 0.544366 0.375000
vt 0.550490 0.375000
vt 0.475543 0.125000
vt 0.483696 0.125000
vt 0.491848 0.125000
vt 0.475543 0.250000
vt 0.483696 0.250000
vt 0.491848 0.250000
vt 0.475543 0.375000
vt 0.483696 0.375000
vt 0.491848 0.375000
vt 0.508152 0.625000
vt 0.516304 0.625000
vt 0.524457 0.625000
vt 0.508152 0.750000
vt 0.516304 0.750000
vt 0.524457 0.750000
vt 0.508152 0.875000
vt 0.516304 0.875000
vt 0.524457 0.875000
vt 0.550490 0.625000
vt 0.544366 0.625000
vt 0.537973 0.625000
vt 0.550493 0.750000
vt 0.544393 0.750000
vt 0.538049 0.750000
vt 0.550501 0.875000
vt 0.544457 0.875000
vt 0.538250 0.875000
vt 0.523853 0.625000
vt 0.516126 0.625000
vt 0.508130 0.625000
vt 0.523929 0.750000
vt 0.516153 0.750000
vt 0.508133 0.750000
vt 0.524130 0.875000
vt 0.516217 0.875000
vt 0.508141 0.875000
vt 0.491870 0.625000
vt 0.483874 0.625000
vt 0.476147 0.625000
vt 0.491867 0.750000
vt 0.483847 0.750000
vt 0.476071 0.750000
vt 0.491859 0.875000
vt 0.483783 0.875000
vt 0.475870 0.875000
vt 0.462027 0.625000
vt 0.455634 0.625000
vt 0.449510 0.625000
vt 0.461951 0.750000
vt 0.455607 0.750000
vt 0.449507 0.750000
vt 0.461750 0.875000
vt 0.455543 0.875000
vt 0.449499 0.875000
vt 0.524457 0.625000
vt 0.516304 0.625000
vt 0.508152 0.625000
vt 0.524457 0.750000
vt 0.516304 0.750000
vt 0.508152 0.750000
vt 0.524457 0.875000
vt 0.516304 0.875000
vt 0.508152 0.875000
vt 0.491848 0.625000
vt 0.483696 0.625000
vt 0.475544 0.625000
vt 0.491848 0.750000
vt 0.483696 0.750000
vt 0.475544 0.750000
vt 0.491848 0.875000
vt 0.483696 0.875000
vt 0.475543 0.875000
vt 0.449510 0.625000
vt 0.455634 0.625000
vt 0.462027 0.625000
vt 0.449507 0.750000
vt 0.455607 0.750000
vt 0.461951 0.750000
vt 0.449499 0.875000
vt 0.455543 0.875000
vt 0.461750 0.875000
vt 0.476147 0.625000
vt 0.483874 0.625000
vt 0.491870 0.625000
vt 0.476071 0.750000
vt 0.483847 0.750000
vt 0.491867 0.750000
vt 0.475870 0.875000
vt 0.483783 0.875000
vt 0.491859 0.875000
vt 0.508130 0.625000
vt 0.516126 0.625000
vt 0.523853 0.625000
vt 0.508133 0.750000
vt 0.516153 0.750000
vt 0.523929 0.750000
vt 0.508141 0.875000
vt 0.516217 0.875000
vt 0.524130 0.875000
vt 0.537973 0.625000
vt 0.544366 0.625000
vt 0.550490 0.625000
vt 0.538049 0.750000
vt 0.544393 0.750000
vt 0.550493 0.750000
vt 0.538250 0.875000
vt 0.544457 0.875000
vt 0.550501 0.875000
vt 0.475543 0.625000
vt 0.483696 0.625000
vt 0.491848 0.625000
vt 0.475544 0.750000
vt 0.483696 0.750000
vt 0.491848 0.750000
vt 0.475543 0.875000
vt 0.483696 0.875000
vt 0.491848 0.875000
s 1
usemtl Concrete
f 217/253/1 218/254/2 221/257/2 220/256/1
f 218/254/2 219/255/3 222/258/3 221/257/2
f 220/256/1 221/257/2 224/260/2 223/259/1
f 221/257/2 222/258/3 225/261/3 224/260/2
f 1/1/4 37/49/1 217/253/1 70/82/4
f 37/49/1 38/50/2 218/254/2 217/253/1
f 38/50/2 39/51/3 219/255/3 218/254/2
f 39/51/3 2/2/5 73/85/5 219/255/3
f 219/255/3 73/85/5 74/87/5 222/258/3
f 222/258/3 74/87/5 75/89/5 225/261/3
f 225/261/3 75/89/5 14/18/5 138/168/3
f 224/260/2 225/261/3 138/168/3 137/167/2
f 223/259/1 224/260/2 137/167/2 136/166/1
f 72/84/4 223/259/1 136/166/1 13/17/4
f 71/83/4 220/256/1 223/259/1 72/84/4
f 70/82/4 217/253/1 220/256/1 71/83/4
f 226/262/6 227/263/7 230/266/7 229/265/6
f 227/263/7 228/264/8 231/267/8 230/266/7
f 229/265/6 230/266/7 233/269/7 232/268/6
f 230/266/7 231/267/8 234/270/8 233/269/7
f 2/3/5 40/52/6 226/262/6 73/86/5
f 40/52/6 41/53/7 227/263/7 226/262/6
f 41/53/7 42/54/8 228/264/8 227/263/7
f 42/54/8 3/4/9 76/91/9 228/264/8
f 228/264/8 76/91/9 77/92/9 231/267/8
f 231/267/8 77/92/9 78/93/9 234/270/8
f 234/270/8 78/93/9 15/20/9 150/183/8
f 233/269/7 234/270/8 150/183/8 149/182/7
f 232/268/6 233/269/7 149/182/7 148/181/6
f 75/90/5 232/268/6 148/181/6 14/19/5
f 74/88/5 229/265/6 232/268/6 75/90/5
f 73/86/5 226/262/6 229/265/6 74/88/5
f 235/271/10 236/272/11 239/275/11 238/274/10
f 236/272/11 237/273/12 240/276/12 239/275/11
f 238/274/10 239/275/11 242/278/11 241/277/10
f 239/275/11 240/276/12 243/279/12 242/278/11
f 3/4/9 43/55/10 235/271/10 76/91/9
f 43/55/10 44/56/11 236/272/11 235/271/10
f 44/56/11 45/57/12 237/273/12 236/272/11
f 45/57/12 4/5/13 79/94/13 237/273/12
f 237/273/12 79/94/13 80/95/13 240/276/12
f 240/276/12 80/95/13 81/96/13 243/279/12
f 243/279/12 81/96/13 16/21/13 162/195/12
f 242/278/11 243/279/12 162/195/12 161/194/11
f 241/277/10 242/278/11 161/194/11 160/193/10
f 78/93/9 241/277/10 160/193/10 15/20/9
f 77/92/9 238/274/10 241/277/10 78/93/9
f 76/91/9 235/271/10 238/274/10 77/92/9
f 244/280/14 245/281/15 248/284/15 247/283/14
f 245/281/15 246/282/16 249/285/16 248/284/15
f 247/283/14 248/284/15 251/287/15 250/286/14
f 248/284/15 249/285/16 252/288/16 251/287/15
f 4/5/13 46/58/14 244/280/14 79/94/13
f 46/58/14 47/59/15 245/281/15 244/280/14
f 47/59/15 48/60/16 246/282/16 245/281/15
f 48/60/16 5/6/17 82/97/17 246/282/16
f 246/282/16 82/97/17 83/98/17 249/285/16
f 249/285/16 83/98/17 84/99/17 252/288/16
f 252/288/16 84/99/17 17/22/17 174/207/16
f 251/287/15 252/288/16 174/207/16 173/206/15
f 250/286/14 251/287/15 173/206/15 172/205/14
f 81/96/13 250/286/14 172/205/14 16/21/13
f 80/95/13 247/283/14 250/286/14 81/96/13
f 79/94/13 244/280/14 247/283/14 80/95/13
f 253/289/18 254/290/19 257/293/19 256/292/18
f 254/290/19 255/291/20 258/294/20 257/293/19
f 256/292/18 257/293/19 260/296/19 259/295/18
f 257/293/19 258/294/20 261/297/20 260/296/19
f 5/6/17 49/61/18 253/289/18 82/97/17
f 49/61/18 50/62/19 254/290/19 253/289/18
f 50/62/19 51/63/20 255/291/20 254/290/19
f 51/63/20 6/7/21 85/100/21 255/291/20
f 255/291/20 85/100/21 86/102/21 258/294/20
f 258/294/20 86/102/21 87/104/21 261/297/20
f 261/297/20 87/104/21 18/23/21 186/222/20
f 260/296/19 261/297/20 186/222/20 185/221/19
f 259/295/18 260/296/19 185/221/19 184/220/18
f 84/99/17 259/295/18 184/220/18 17/22/17
f 83/98/17 256/292/18 259/295/18 84/99/17
f 82/97/17 253/289/18 256/292/18 83/98/17
f 262/298/22 263/299/23 266/302/23 265/301/22
f 263/299/23 264/300/24 267/303/24 266/302/23
f 265/301/22 266/302/23 269/305/23 268/304/22
f 266/302/23 267/303/24 270/306/24 269/305/23
f 6/8/21 52/64/22 262/298/22 85/101/21
f 52/64/22 53/65/23 263/299/23 262/298/22
f 53/65/23 54/66/24 264/300/24 263/299/23
f 54/66/24 7/9/25 88/106/25 264/300/24
f 264/300/24 88/106/25 89/107/25 267/303/24
f 267/303/24 89/107/25 90/108/25 270/306/24
f 270/306/24 90/108/25 19/25/25 195/231/24
f 269/305/23 270/306/24 195/231/24 194/230/23
f 268/304/22 269/305/23 194/230/23 193/229/22
f 87/105/21 268/304/22 193/229/22 18/24/21
f 86/103/21 265/301/22 268/304/22 87/105/21
f 85/101/21 262/298/22 265/301/22 86/103/21
f 271/307/26 272/308/27 275/311/27 274/310/26
f 272/308/27 273/309/28 276/312/28 275/311/27
f 274/310/26 275/311/27 278/314/27 277/313/26
f 275/311/27 276/312/28 279/315/28 278/314/27
f 7/9/25 55/67/26 271/307/26 88/106/25
f 55/67/26 56/68/27 272/308/27 271/307/26
f 56/68/27 57/69/28 273/309/28 272/308/27
f 57/69/28 8/10/29 91/109/29 273/309/28
f 273/309/28 91/109/29 92/111/29 276/312/28
f 276/312/28 92/111/29 93/113/29 279/315/28
f 279/315/28 93/113/29 20/26/29 201/237/28
f 278/314/27 279/315/28 201/237/28 200/236/27
f 277/313/26 278/314/27 200/236/27 199/235/26
f 90/108/25 277/313/26 199/235/26 19/25/25
f 89/107/25 274/310/26 277/313/26 90/108/25
f 88/106/25 271/307/26 274/310/26 89/107/25
f 280/316/30 281/317/31 284/320/31 283/319/30
f 281/317/31 282/318/32 285/321/32 284/320/31
f 283/319/30 284/320/31 287/323/31 286/322/30
f 284/320/31 285/321/32 288/324/32 287/323/31
f 8/11/29 58/70/30 280/316/30 91/110/29
f 58/70/30 59/71/31 281/317/31 280/316/30
f 59/71/31 60/72/32 282/318/32 281/317/31
f 60/72/32 9/12/33 94/115/33 282/318/32
f 282/318/32 94/115/33 95/116/33 285/321/32
f 285/321/32 95/116/33 96/117/33 288/324/32
f 288/324/32 96/117/33 21/28/33 213/249/32
f 287/323/31 288/324/32 213/249/32 212/248/31
f 286/322/30 287/323/31 212/248/31 211/247/30
f 93/114/29 286/322/30 211/247/30 20/27/29
f 92/112/29 283/319/30 286/322/30 93/114/29
f 91/110/29 280/316/30 283/319/30 92/112/29
f 289/325/34 290/326/35 293/329/35 292/328/34
f 290/326/35 291/327/36 294/330/36 293/329/35
f 292/328/34 293/329/35 296/332/35 295/331/34
f 293/329/35 294/330/36 297/333/36 296/332/35
f 9/12/33 61/73/34 289/325/34 94/115/33
f 61/73/34 62/74/35 290/326/35 289/325/34
f 62/74/35 63/75/36 291/327/36 290/326/35
f 63/75/36 10/13/37 151/184/37 291/327/36
f 291/327/36 151/184/37 152/185/37 294/330/36
f 294/330/36 152/185/37 153/186/37 297/333/36
f 297/333/36 153/186/37 22/29/37 99/120/36
f 296/332/35 297/333/36 99/120/36 98/119/35
f 295/331/34 296/332/35 98/119/35 97/118/34
f 96/117/33 295/331/34 97/118/34 21/28/33
f 95/116/33 292/328/34 295/331/34 96/117/33
f 94/115/33 289/325/34 292/328/34 95/116/33
f 298/334/38 299/335/39 302/338/39 301/337/38
f 299/335/39 300/336/40 303/339/40 302/338/39
f 301/337/38 302/338/39 305/341/39 304/340/38
f 302/338/39 303/339/40 306/342/40 305/341/39
f 10/13/37 208/244/38 298/334/38 151/184/37
f 208/244/38 209/245/39 299/335/39 298/334/38
f 209/245/39 210/246/40 300/336/40 299/335/39
f 210/246/40 11/14/41 100/121/41 300/336/40
f 300/336/40 100/121/41 101/122/41 303/339/40
f 303/339/40 101/122/41 102/123/41 306/342/40
f 306/342/40 102/123/41 23/30/41 105/126/40
f 305/341/39 306/342/40 105/126/40 104/125/39
f 304/340/38 305/341/39 104/125/39 103/124/38
f 153/186/37 304/340/38 103/124/38 22/29/37
f 152/185/37 301/337/38 304/340/38 153/186/37
f 151/184/37 298/334/38 301/337/38 152/185/37
f 307/343/42 308/344/43 311/347/43 310/346/42
f 308/344/43 309/345/44 312/348/44 311/347/43
f 310/346/42 311/347/43 314/350/43 313/349/42
f 311/347/43 312/348/44 315/351/44 314/350/43
f 11/14/41 67/79/42 307/343/42 100/121/41
f 67/79/42 68/80/43 308/344/43 307/343/42
f 68/80/43 69/81/44 309/345/44 308/344/43
f 69/81/44 12/15/45 178/211/45 309/345/44
f 309/345/44 178/211/45 179/213/45 312/348/44
f 312/348/44 179/213/45 180/215/45 315/351/44
f 315/351/44 180/215/45 24/31/45 144/177/44
f 314/350/43 315/351/44 144/177/44 143/176/43
f 313/349/42 314/350/43 143/176/43 142/175/42
f 102/123/41 313/349/42 142/175/42 23/30/41
f 101/122/41 310/346/42 313/349/42 102/123/41
f 100/121/41 307/343/42 310/346/42 101/122/41
f 316/352/46 317/353/47 320/356/47 319/355/46
f 317/353/47 318/354/48 321/357/48 320/356/47
f 319/355/46 320/356/47 323/359/47 322/358/46
f 320/356/47 321/357/48 324/360/48 323/359/47
f 12/16/45 159/192/46 316/352/46 178/212/45
f 159/192/46 158/191/47 317/353/47 316/352/46
f 158/191/47 157/190/48 318/354/48 317/353/47
f 157/190/48 1/1/4 70/82/4 318/354/48
f 318/354/48 70/82/4 71/83/4 321/357/48
f 321/357/48 71/83/4 72/84/4 324/360/48
f 324/360/48 72/84/4 13/17/4 181/217/48
f 323/359/47 324/360/48 181/217/48 182/218/47
f 322/358/46 323/359/47 182/218/47 183/219/46
f 180/216/45 322/358/46 183/219/46 24/32/45
f 179/214/45 319/355/46 322/358/46 180/216/45
f 178/212/45 316/352/46 319/355/46 179/214/45
f 325/361/1 326/362/2 329/365/2 328/364/1
f 326/362/2 327/363/3 330/366/3 329/365/2
f 328/364/1 329/365/2 332/368/2 331/367/1
f 329/365/2 330/366/3 333/369/3 332/368/2
f 13/17/4 136/166/1 325/361/1 106/127/4
f 136/166/1 137/167/2 326/362/2 325/361/1
f 137/167/2 138/168/3 327/363/3 326/362/2
f 138/168/3 14/18/5 109/130/5 327/363/3
f 327/363/3 109/130/5 110/132/5 330/366/3
f 330/366/3 110/132/5 111/134/5 333/369/3
f 333/369/3 111/134/5 26/34/5 165/198/3
f 332/368/2 333/369/3 165/198/3 164/197/2
f 331/367/1 332/368/2 164/197/2 163/196/1
f 108/129/4 331/367/1 163/196/1 25/33/4
f 107/128/4 328/364/1 331/367/1 108/129/4
f 106/127/4 325/361/1 328/364/1 107/128/4
f 334/370/6 335/371/7 338/374/7 337/373/6
f 335/371/7 336/372/8 339/375/8 338/374/7
f 337/373/6 338/374/7 341/377/7 340/376/6
f 338/374/7 339/375/8 342/378/8 341/377/7
f 14/19/5 148/181/6 334/370/6 109/131/5
f 148/181/6 149/182/7 335/371/7 334/370/6
f 149/182/7 150/183/8 336/372/8 335/371/7
f 150/183/8 15/20/9 112/136/9 336/372/8
f 336/372/8 112/136/9 113/137/9 339/375/8
f 339/375/8 113/137/9 114/138/9 342/378/8
f 342/378/8 114/138/9 27/36/9 177/210/8
f 341/377/7 342/378/8 177/210/8 176/209/7
f 340/376/6 341/377/7 176/209/7 175/208/6
f 111/135/5 340/376/6 175/208/6 26/35/5
f 110/133/5 337/373/6 340/376/6 111/135/5
f 109/131/5 334/370/6 337/373/6 110/133/5
f 343/379/10 344/380/11 347/383/11 346/382/10
f 344/380/11 345/381/12 348/384/12 347/383/11
f 346/382/10 347/383/11 350/386/11 349/385/10
f 347/383/11 348/384/12 351/387/12 350/386/11
f 15/20/9 160/193/10 343/379/10 112/136/9
f 160/193/10 161/194/11 344/380/11 343/379/10
f 161/194/11 162/195/12 345/381/12 344/380/11
f 162/195/12 16/21/13 115/139/13 345/381/12
f 345/381/12 115/139/13 116/140/13 348/384/12
f 348/384/12 116/140/13 117/141/13 351/387/12
f 351/387/12 117/141/13 28/37/13 189/225/12
f 350/386/11 351/387/12 189/225/12 188/224/11
f 349/385/10 350/386/11 188/224/11 187/223/10
f 114/138/9 349/385/10 187/223/10 27/36/9
f 113/137/9 346/382/10 349/385/10 114/138/9
f 112/136/9 343/379/10 346/382/10 113/137/9
f 352/388/14 353/389/15 356/392/15 355/391/14
f 353/389/15 354/390/16 357/393/16 356/392/15
f 355/391/14 356/392/15 359/395/15 358/394/14
f 356/392/15 357/393/16 360/396/16 359/395/15
f 16/21/13 172/205/14 352/388/14 115/139/13
f 172/205/14 173/206/15 353/389/15 352/388/14
f 173/206/15 174/207/16 354/390/16 353/389/15
f 174/207/16 17/22/17 118/142/17 354/390/16
f 354/390/16 118/142/17 119/143/17 357/393/16
f 357/393/16 119/143/17 120/144/17 360/396/16
f 360/396/16 120/144/17 29/38/17 198/234/16
f 359/395/15 360/396/16 198/234/16 197/233/15
f 358/394/14 359/395/15 197/233/15 196/232/14
f 117/141/13 358/394/14 196/232/14 28/37/13
f 116/140/13 355/391/14 358/394/14 117/141/13
f 115/139/13 352/388/14 355/391/14 116/140/13
f 361/397/18 362/398/19 365/401/19 364/400/18
f 362/398/19 363/399/20 366/402/20 365/401/19
f 364/400/18 365/401/19 368/404/19 367/403/18
f 365/401/19 366/402/20 369/405/20 368/404/19
f 17/22/17 184/220/18 361/397/18 118/142/17
f 184/220/18 185/221/19 362/398/19 361/397/18
f 185/221/19 186/222/20 363/399/20 362/398/19
f 186/222/20 18/23/21 121/145/21 363/399/20
f 363/399/20 121/145/21 122/147/21 366/402/20
f 366/402/20 122/147/21 123/149/21 369/405/20
f 369/405/20 123/149/21 30/39/21 207/243/20
f 368/404/19 369/405/20 207/243/20 206/242/19
f 367/403/18 368/404/19 206/242/19 205/241/18
f 120/144/17 367/403/18 205/241/18 29/38/17
f 119/143/17 364/400/18 367/403/18 120/144/17
f 118/142/17 361/397/18 364/400/18 119/143/17
f 370/406/22 371/407/23 374/410/23 373/409/22
f 371/407/23 372/408/24 375/411/24 374/410/23
f 373/409/22 374/410/23 377/413/23 376/412/22
f 374/410/23 375/411/24 378/414/24 377/413/23
f 18/24/21 193/229/22 370/406/22 121/146/21
f 193/229/22 194/230/23 371/407/23 370/406/22
f 194/230/23 195/231/24 372/408/24 371/407/23
f 195/231/24 19/25/25 124/151/25 372/408/24
f 372/408/24 124/151/25 125/152/25 375/411/24
f 375/411/24 125/152/25 126/153/25 378/414/24
f 378/414/24 126/153/25 31/41/25 216/252/24
f 377/413/23 378/414/24 216/252/24 215/251/23
f 376/412/22 377/413/23 215/251/23 214/250/22
f 123/150/21 376/412/22 214/250/22 30/40/21
f 122/148/21 373/409/22 376/412/22 123/150/21
f 121/146/21 370/406/22 373/409/22 122/148/21
f 379/415/26 380/416/27 383/419/27 382/418/26
f 380/416/27 381/417/28 384/420/28 383/419/27
f 382/418/26 383/419/27 386/422/27 385/421/26
f 383/419/27 384/420/28 387/423/28 386/422/27
f 19/25/25 199/235/26 379/415/26 124/151/25
f 199/235/26 200/236/27 380/416/27 379/415/26
f 200/236/27 201/237/28 381/417/28 380/416/27
f 201/237/28 20/26/29 127/154/29 381/417/28
f 381/417/28 127/154/29 128/156/29 384/420/28
f 384/420/28 128/156/29 129/158/29 387/423/28
f 387/423/28 129/158/29 32/42/29 171/204/28
f 386/422/27 387/423/28 171/204/28 170/203/27
f 385/421/26 386/422/27 170/203/27 169/202/26
f 126/153/25 385/421/26 169/202/26 31/41/25
f 125/152/25 382/418/26 385/421/26 126/153/25
f 124/151/25 379/415/26 382/418/26 125/152/25
f 388/424/30 389/425/31 392/428/31 391/427/30
f 389/425/31 390/426/32 393/429/32 392/428/31
f 391/427/30 392/428/31 395/431/31 394/430/30
f 392/428/31 393/429/32 396/432/32 395/431/31
f 20/27/29 211/247/30 388/424/30 127/155/29
f 211/247/30 212/248/31 389/425/31 388/424/30
f 212/248/31 213/249/32 390/426/32 389/425/31
f 213/249/32 21/28/33 130/160/33 390/426/32
f 390/426/32 130/160/33 131/161/33 393/429/32
f 393/429/32 131/161/33 132/162/33 396/432/32
f 396/432/32 132/162/33 33/44/33 66/78/32
f 395/431/31 396/432/32 66/78/32 65/77/31
f 394/430/30 395/431/31 65/77/31 64/76/30
f 129/159/29 394/430/30 64/76/30 32/43/29
f 128/157/29 391/427/30 394/430/30 129/159/29
f 127/155/29 388/424/30 391/427/30 128/157/29
f 397/433/34 398/434/35 401/437/35 400/436/34
f 398/434/35 399/435/36 402/438/36 401/437/35
f 400/436/34 401/437/35 404/440/35 403/439/34
f 401/437/35 402/438/36 405/441/36 404/440/35
f 21/28/33 97/118/34 397/433/34 130/160/33
f 97/118/34 98/119/35 398/434/35 397/433/34
f 98/119/35 99/120/36 399/435/36 398/434/35
f 99/120/36 22/29/37 133/163/37 399/435/36
f 399/435/36 133/163/37 134/164/37 402/438/36
f 402/438/36 134/164/37 135/165/37 405/441/36
f 405/441/36 135/165/37 34/45/37 147/180/36
f 404/440/35 405/441/36 147/180/36 146/179/35
f 403/439/34 404/440/35 146/179/35 145/178/34
f 132/162/33 403/439/34 145/178/34 33/44/33
f 131/161/33 400/436/34 403/439/34 132/162/33
f 130/160/33 397/433/34 400/436/34 131/161/33
f 406/442/38 407/443/39 410/446/39 409/445/38
f 407/443/39 408/444/40 411/447/40 410/446/39
f 409/445/38 410/446/39 413/449/39 412/448/38
f 410/446/39 411/447/40 414/450/40 413/449/39
f 22/29/37 103/124/38 406/442/38 133/163/37
f 103/124/38 104/125/39 407/443/39 406/442/38
f 104/125/39 105/126/40 408/444/40 407/443/39
f 105/126/40 23/30/41 190/226/41 408/444/40
f 408/444/40 190/226/41 191/227/41 411/447/40
f 411/447/40 191/227/41 192/228/41 414/450/40
f 414/450/40 192/228/41 35/46/41 156/189/40
f 413/449/39 414/450/40 156/189/40 155/188/39
f 412/448/38 413/449/39 155/188/39 154/187/38
f 135/165/37 412/448/38 154/187/38 34/45/37
f 134/164/37 409/445/38 412/448/38 135/165/37
f 133/163/37 406/442/38 409/445/38 134/164/37
f 415/451/42 416/452/43 419/455/43 418/454/42
f 416/452/43 417/453/44 420/456/44 419/455/43
f 418/454/42 419/455/43 422/458/43 421/457/42
f 419/455/43 420/456/44 423/459/44 422/458/43
f 23/30/41 142/175/42 415/451/42 190/226/41
f 142/175/42 143/176/43 416/452/43 415/451/42
f 143/176/43 144/177/44 417/453/44 416/452/43
f 144/177/44 24/31/45 139/169/45 417/453/44
f 417/453/44 139/169/45 140/171/45 420/456/44
f 420/456/44 140/171/45 141/173/45 423/459/44
f 423/459/44 141/173/45 36/47/45 168/201/44
f 422/458/43 423/459/44 168/201/44 167/200/43
f 421/457/42 422/458/43 167/200/43 166/199/42
f 192/228/41 421/457/42 166/199/42 35/46/41
f 191/227/41 418/454/42 421/457/42 192/228/41
f 190/226/41 415/451/42 418/454/42 191/227/41
f 424/460/46 425/461/47 428/464/47 427/463/46
f 425/461/47 426/462/48 429/465/48 428/464/47
f 427/463/46 428/464/47 431/467/47 430/466/46
f 428/464/47 429/465/48 432/468/48 431/467/47
f 24/32/45 183/219/46 424/460/46 139/170/45
f 183/219/46 182/218/47 425/461/47 424/460/46
f 182/218/47 181/217/48 426/462/48 425/461/47
f 181/217/48 13/17/4 106/127/4 426/462/48
f 426/462/48 106/127/4 107/128/4 429/465/48
f 429/465/48 107/128/4 108/129/4 432/468/48
f 432/468/48 108/129/4 25/33/4 202/238/48
f 431/467/47 432/468/48 202/238/48 203/239/47
f 430/466/46 431/467/47 203/239/47 204/240/46
f 141/174/45 430/466/46 204/240/46 36/48/45
f 140/172/45 427/463/46 430/466/46 141/174/45
f 139/170/45 424/460/46 427/463/46 140/172/45
o Column_box_bottom
v -0.200000 0.000000 0.200000
v -0.200000 0.000000 -0.200000
v 0.200000 0.000000 -0.200000
v 0.200000 0.000000 0.200000
v -0.200000 0.050000 0.200000
v -0.200000 0.050000 -0.200000
v 0.200000 0.050000 -0.200000
v 0.200000 0.050000 0.200000
vn -0.0000 -1.0000 -0.0000
vn -1.0000 -0.0000 -0.0000
vn -0.0000 -0.0000 -1.0000
vn 1.0000 -0.0000 -0.0000
vn -0.0000 1.0000 -0.0000
vn -0.0000 -0.0000 1.0000
vt 0.499865 0.499865
vt 0.499865 0.562601
vt 0.499865 0.000135
vt 0.000135 0.562601
vt 0.499865 0.625338
vt 0.000135 0.000135
vt 0.000135 0.625338
vt 0.000135 0.499865
vt 0.499865 0.625338
vt 0.000135 0.562601
vt 0.999865 0.499865
vt 0.499865 0.500135
vt 0.000135 0.500135
vt 0.499865 0.562872
vt 0.999865 0.000135
vt 0.000135 0.562872
vt 0.500135 0.000135
vt 0.499865 0.562872
vt 0.500135 0.499865
vt 0.000135 0.500135
s 0
usemtl Concrete
f 433/469/49 434/471/49 435/474/49 436/476/49
f 433/470/50 437/480/50 438/481/50 434/472/50
f 434/473/51 438/482/51 439/484/51 435/475/51
f 435/475/52 439/484/52 440/486/52 436/477/52
f 438/483/53 437/479/53 440/487/53 439/485/53
f 433/470/54 436/478/54 440/488/54 437/480/54
o Column_box_top
v -0.200000 2.350000 0.200000
v -0.200000 2.350000 -0.200000
v 0.200000 2.350000 -0.200000
v 0.200000 2.350000 0.200000
v -0.200000 2.400000 0.200000
v -0.200000 2.400000 -0.200000
v 0.200000 2.400000 -0.200000
v 0.200000 2.400000 0.200000
vn -0.0000 -1.0000 -0.0000
vn -1.0000 -0.0000 -0.0000
vn -0.0000 -0.0000 -1.0000
vn 1.0000 -0.0000 -0.0000
vn -0.0000 1.0000 -0.0000
vn -0.0000 -0.0000 1.0000
vt 0.499865 0.499865
vt 0.499865 0.562601
vt 0.499865 0.000135
vt 0.000135 0.562601
vt 0.499865 0.625338
vt 0.000135 0.000135
vt 0.000135 0.625338
vt 0.000135 0.499865
vt 0.499865 0.625338
vt 0.000135 0.562601
vt 0.999865 0.499865
vt 0.499865 0.500135
vt 0.000135 0.500135
vt 0.499865 0.562872
vt 0.999865 0.000135
vt 0.000135 0.562872
vt 0.500135 0.000135
vt 0.499865 0.562872
vt 0.500135 0.499865
vt 0.000135 0.500135
s 0
usemtl Concrete
f 441/489/55 442/491/55 443/494/55 444/496/55
f 441/490/56 445/500/56 446/501/56 442/492/56
f 442/493/57 446/502/57 447/504/57 443/495/57
f 443/495/58 447/504/58 448/506/58 444/497/58
f 446/503/59 445/499/59 448/507/59 447/505/59
f 441/490/60 444/498/60 448/508/60 445/500/60
