# This file uses centimeters as units for non-parametric coordinates.

mtllib PearJewelOBJ.mtl
g default
v -0.526784 0.260053 0.796300
v 0.526784 0.260053 0.796300
v -0.489909 0.260053 -0.505420
v 0.489909 0.260053 -0.505420
v -0.731645 0.260053 0.296254
v 0.731645 0.260053 0.296254
v 0.000000 0.260053 -0.868833
v 0.000000 0.260053 1.028108
v -0.301335 0.189579 -1.108011
v -0.859970 0.189579 -0.132120
v -0.853164 0.189579 0.671091
v -0.334817 0.189579 1.132412
v 0.334817 0.189579 1.132412
v 0.853164 0.189579 0.671091
v 0.859970 0.189579 -0.132120
v 0.301335 0.189579 -1.108011
v 0.000000 -0.691081 0.351814
v -1.084759 0.027233 0.813808
v -1.083403 -0.028602 0.817182
v -0.798647 0.025608 1.133040
v -0.797991 -0.030147 1.136093
v 0.405999 0.027325 1.373160
v 0.404140 -0.028549 1.374036
v 0.798624 0.025643 1.133012
v 0.797991 -0.030147 1.136093
v 1.084747 0.027248 0.813801
v 1.083391 -0.028617 0.817177
v 1.182471 0.025647 0.352900
v 1.184049 -0.030171 0.353349
v 0.000000 0.024603 -1.686317
v 0.000000 -0.031261 -1.687243
v 0.398003 0.031596 -1.300089
v 0.401416 -0.024049 -1.292121
v -0.405999 0.027322 1.373163
v -0.404141 -0.028546 1.374039
v 0.000000 0.025778 1.442265
v 0.000000 -0.030036 1.443806
v -0.397974 0.031683 -1.300032
v -0.401416 -0.024049 -1.292121
v -1.086720 0.028919 -0.187159
v -1.087598 -0.026923 -0.182092
v -0.752802 0.028326 -0.820587
v -0.759461 -0.027491 -0.811024
v -1.182478 0.025641 0.352900
v -1.184056 -0.030163 0.353349
v 0.752781 0.028353 -0.820574
v 0.759446 -0.027517 -0.811002
v 1.086720 0.028919 -0.187159
v 1.087598 -0.026923 -0.182092
v 0.334087 -0.497971 0.208242
v 0.332795 -0.498217 0.515196
v -0.124144 -0.498207 0.686252
v 0.124143 -0.498207 0.686251
v 0.123307 -0.541138 -0.161297
v -0.123307 -0.541138 -0.161297
v -0.334087 -0.497971 0.208242
v -0.332799 -0.498215 0.515198
v 1.003235 0.016796 -0.345513
v 1.005560 -0.015628 -0.339319
v 0.836265 0.016631 -0.662220
v 0.841484 -0.015801 -0.653774
v 0.664086 0.017020 -0.940453
v 0.669939 -0.015384 -0.931281
v 0.486697 0.017961 -1.180210
v 0.490924 -0.014377 -1.171841
v 0.298502 0.017417 -1.396646
v 0.301062 -0.014920 -1.390901
v 0.099501 0.015387 -1.589760
v 0.100354 -0.017014 -1.588463
v -0.099494 0.015399 -1.589746
v -0.100354 -0.017014 -1.588463
v -0.298481 0.017455 -1.396604
v -0.301062 -0.014920 -1.390901
v -0.486681 0.017995 -1.180171
v -0.490927 -0.014373 -1.171846
v -0.664095 0.017020 -0.940448
v -0.669950 -0.015372 -0.931298
v -0.836281 0.016619 -0.662230
v -0.841495 -0.015789 -0.653791
v -1.003240 0.016792 -0.345516
v -1.005563 -0.015625 -0.339325
v -1.110659 0.016402 -0.052144
v -1.111712 -0.016013 -0.048231
v -1.158538 0.015450 0.217885
v -1.159941 -0.016953 0.219489
v -1.158048 0.015206 0.468127
v -1.158893 -0.017197 0.469308
v -1.109189 0.015668 0.698581
v -1.108566 -0.016743 0.701224
v -1.013231 0.015663 0.893616
v -1.012050 -0.016741 0.896910
v -0.870175 0.015192 1.053232
v -0.869344 -0.017189 1.056365
v -0.700485 0.015204 1.193070
v -0.699529 -0.017181 1.195579
v -0.504161 0.015702 1.313132
v -0.502604 -0.016716 1.314552
v -0.304500 0.015726 1.390438
v -0.303106 -0.016700 1.391480
v -0.101500 0.015278 1.424989
v -0.101035 -0.017133 1.426364
v 0.101500 0.015279 1.424989
v 0.101035 -0.017133 1.426363
v 0.304499 0.015728 1.390437
v 0.303105 -0.016702 1.391479
v 0.504155 0.015708 1.313123
v 0.502603 -0.016718 1.314550
v 0.700468 0.015220 1.193049
v 0.699528 -0.017182 1.195579
v 0.870155 0.015209 1.053209
v 0.869341 -0.017192 1.056364
v 1.013217 0.015675 0.893604
v 1.012041 -0.016748 0.896906
v 1.109178 0.015675 0.698576
v 1.108555 -0.016751 0.701220
v 1.158040 0.015211 0.468125
v 1.158885 -0.017202 0.469306
v 1.158533 0.015453 0.217885
v 1.159937 -0.016956 0.219489
v 1.110658 0.016403 -0.052145
v 1.111711 -0.016014 -0.048231
vt 0.000000 0.000000
vt 0.000000 1.000000
vt 1.000000 1.000000
vt 0.000000 0.500000
vt 1.000000 0.500000
vt 0.500000 1.000000
vt 0.500000 0.000000
vt 0.000000 0.000000
vt 1.000000 0.000000
vt 1.000000 0.000000
vt 0.000000 0.000000
vt 1.000000 0.000000
vt 0.000000 0.000000
vt 1.000000 0.000000
vt 0.000000 0.000000
vt 1.000000 0.000000
vt 0.000000 0.000000
vt 1.000000 0.000000
vt 1.000000 0.000000
vt 0.000000 0.000000
vt 1.000000 0.000000
vt 0.500000 1.000000
vt 0.500000 1.000000
vt 0.500000 1.000000
vt 0.500000 1.000000
vt 0.500000 1.000000
vt 0.500000 1.000000
vt 0.500000 1.000000
vt 1.000000 0.916135
vt 0.992919 0.969697
vt 0.515579 0.968842
vt 0.017407 1.000000
vt 0.500000 1.000000
vt 0.500000 1.000000
vt 1.000000 0.915854
vt 0.997988 0.973157
vt 0.514021 0.971958
vt 0.500000 1.000000
vt 0.500000 1.000000
vt 0.022245 1.000000
vt 1.000000 0.916089
vt 0.998433 0.968302
vt 0.516463 0.967074
vt 0.500000 1.000000
vt 0.019665 1.000000
vt 0.971801 1.000000
vt 0.017122 1.000000
vt 1.000000 0.954441
vt 1.000000 0.902776
vt 1.000000 0.965757
vt 0.033190 1.000000
vt 0.742439 1.000000
vt 1.000000 0.915864
vt 0.995512 0.973044
vt 1.000000 0.902510
vt 0.980565 0.972490
vt 0.272663 0.969783
vt 1.000000 0.910972
vt 0.994604 0.971462
vt 0.515643 0.968715
vt 0.015045 1.000000
vt 0.257624 1.000000
vt 0.757631 0.969475
vt 1.000000 0.910972
vt 1.000000 0.969911
vt 0.042073 1.000000
vt 0.041955 1.000000
vt 0.044514 1.000000
vt 0.042068 1.000000
vt 0.000000 0.000000
vt 0.044514 1.000000
vt 0.041932 1.000000
vt 0.048612 1.000000
vt 0.500000 1.000000
vt 0.981048 0.962095
vt 1.000000 0.000000
vt 0.048745 1.000000
vt 0.471055 0.942110
vt 1.000000 0.000000
vt 0.471615 0.943231
vt 1.000000 0.000000
vt 0.474055 0.948110
vt 1.000000 0.000000
vt 0.247223 0.932611
vt 1.000000 0.000000
vt 0.706451 0.946630
vt 1.000000 0.000000
vt 0.477954 0.940287
vt 1.000000 0.000000
vt 0.472086 0.942136
vt 1.000000 0.000000
vt 0.000005 0.022099
vt 0.999999 0.020961
vt 0.000000 0.022099
vt 1.000000 0.020929
vt 0.000000 0.022117
vt 1.000000 0.020960
vt 0.000000 0.022920
vt 1.000000 0.017618
vt 0.000002 0.022017
vt 1.000000 0.020919
vt 0.000008 0.017607
vt 1.000000 0.022919
vt 0.486337 1.021231
vt 0.000003 0.019724
vt 1.000000 0.020142
vt 0.496039 1.019361
vt 0.000002 0.020961
vt 0.999999 0.022111
vt 0.499598 1.018825
vt 0.000000 0.017608
vt 1.000000 0.020129
vt 0.509857 1.020224
vt 0.000000 0.020922
vt 1.000000 0.022028
vt 0.500390 1.017902
vt 0.000003 0.020919
vt 0.999999 0.022099
vt 0.498849 1.017996
vt 0.000001 0.022111
vt 1.000000 0.019724
vt 0.000000 0.020142
vt 1.000000 0.017607
vt 0.000000 0.020162
vt 1.000000 0.019733
vt 0.000000 0.019724
vt 1.000000 0.022146
vt 0.500952 1.018910
vt 0.000001 0.020972
vt 1.000000 0.022119
vt 0.503579 1.018391
vt 0.627971 0.769454
vt 0.375714 0.769113
vt 0.625301 0.769359
vt 0.377685 0.769037
vt 0.624707 0.768657
vt 0.374138 0.768727
vt 0.625863 0.768729
vt 0.375293 0.768657
vt 0.635247 0.770328
vt 0.382393 0.769570
vt 0.364755 0.770325
vt 0.617607 0.769570
vt 0.372030 0.769452
vt 0.624286 0.769114
vt 0.622315 0.769034
vt 0.374699 0.769359
vt 0.926613 0.919886
vt 0.939408 0.969802
vt 0.750000 0.019840
vt 0.779838 0.937715
vt 0.818223 0.969584
vt 0.250000 0.020055
vt 0.541991 0.959972
vt 0.565127 1.000000
vt 0.750000 0.019498
vt 0.213072 0.986657
vt 0.210502 1.000000
vt 0.250000 0.018238
vt 0.995262 0.917605
vt 1.000000 0.962928
vt 0.750000 0.018944
vt 0.985786 0.947265
vt 1.000000 0.957270
vt 0.250000 0.021595
vt 0.747972 0.971571
vt 0.733131 1.000000
vt 0.750002 0.021591
vt 0.281821 0.990524
vt 0.255792 1.000000
vt 0.250006 0.018935
vt 0.811806 0.910035
vt 0.803589 0.971813
vt 0.750000 0.018241
vt 0.435417 0.925085
vt 0.449638 0.970460
vt 0.250000 0.019508
vt 0.196546 0.949458
vt 0.196979 1.000000
vt 0.750000 0.020038
vt 0.095191 0.983153
vt 0.075689 1.000000
vt 0.250002 0.019829
vt 0.868514 0.920256
vt 0.874864 0.970775
vt 0.750000 0.020321
vt 0.605541 0.938825
vt 0.635383 0.969402
vt 0.250001 0.021514
vt 0.366024 0.961082
vt 0.379352 1.000000
vt 0.750000 0.021824
vt 0.149963 0.987028
vt 0.138055 1.000000
vt 0.250001 0.021248
vt 0.867904 0.922909
vt 0.873584 0.969483
vt 0.750001 0.021246
vt 0.603712 0.936457
vt 0.634914 0.969056
vt 0.250003 0.021815
vt 0.364229 0.957423
vt 0.378858 1.000000
vt 0.750000 0.021804
vt 0.149455 0.985808
vt 0.136573 1.000000
vt 0.250002 0.021214
vt 0.867764 0.922426
vt 0.875123 0.972804
vt 0.750000 0.021193
vt 0.603291 0.935549
vt 0.634346 0.972326
vt 0.250001 0.021742
vt 0.363810 0.956583
vt 0.379492 1.000000
vt 0.750000 0.021751
vt 0.149319 0.985528
vt 0.138476 1.000000
vt 0.250000 0.021198
vt 0.868021 0.922424
vt 0.876996 0.972857
vt 0.750000 0.021221
vt 0.604064 0.935565
vt 0.635013 0.972258
vt 0.250000 0.021807
vt 0.364553 0.956602
vt 0.380561 1.000000
vt 0.750000 0.021832
vt 0.149488 0.985534
vt 0.141684 1.000000
vt 0.250001 0.021258
vt 0.869488 0.922139
vt 0.877940 0.967995
vt 0.750000 0.021249
vt 0.608465 0.934237
vt 0.636955 0.967381
vt 0.250000 0.021828
vt 0.369594 0.955215
vt 0.379916 1.000000
vt 0.750000 0.021541
vt 0.152874 0.985072
vt 0.139748 1.000000
vt 0.250000 0.020330
vn 0.000000 1.000000 -0.000000
vn 0.000000 1.000000 -0.000000
vn 0.000000 1.000000 -0.000000
vn 0.000000 1.000000 -0.000000
vn 0.000000 1.000000 -0.000000
vn 0.000000 1.000000 -0.000000
vn 0.000000 1.000000 -0.000000
vn 0.000000 1.000000 -0.000000
vn -0.117846 0.956239 0.267806
vn -0.117846 0.956239 0.267806
vn -0.117846 0.956239 0.267806
vn -0.246904 0.963746 0.101152
vn -0.246904 0.963746 0.101152
vn -0.246904 0.963746 0.101152
vn 0.246904 0.963746 0.101152
vn 0.246904 0.963746 0.101152
vn 0.246904 0.963746 0.101152
vn -0.111003 0.982490 -0.149641
vn -0.111003 0.982490 -0.149641
vn -0.111003 0.982490 -0.149641
vn -0.263148 0.961487 -0.079349
vn -0.263148 0.961487 -0.079349
vn -0.263148 0.961487 -0.079349
vn 0.263148 0.961487 -0.079349
vn 0.263148 0.961487 -0.079349
vn 0.263148 0.961487 -0.079349
vn 0.111003 0.982490 -0.149641
vn 0.111003 0.982490 -0.149641
vn 0.111003 0.982490 -0.149641
vn 0.117846 0.956239 0.267806
vn 0.117846 0.956239 0.267806
vn 0.117846 0.956239 0.267806
vn -0.744396 0.036680 0.666730
vn -0.744368 0.037524 0.666715
vn -0.744195 0.039083 0.666818
vn -0.744192 0.039586 0.666792
vn -0.977550 0.022127 0.209538
vn -0.977554 0.021909 0.209544
vn -0.977747 0.005339 0.209720
vn -0.977740 0.006505 0.209718
vn -0.519273 0.037204 0.853798
vn -0.519269 0.036753 0.853820
vn -0.519357 0.018669 0.854353
vn -0.519348 0.019789 0.854334
vn 0.519292 0.037801 0.853761
vn 0.519288 0.037346 0.853783
vn 0.630685 0.040774 0.774967
vn 0.637519 0.040472 0.769371
vn 0.744380 0.037020 0.666729
vn 0.744350 0.037890 0.666713
vn 0.892374 0.010913 0.451165
vn 0.902308 0.009301 0.430991
vn 0.977547 0.022126 0.209552
vn 0.977551 0.021907 0.209557
vn 0.999530 0.030461 0.003343
vn 0.999536 0.030452 0.001265
vn 0.984320 0.013792 -0.175855
vn 0.984300 0.015240 -0.175847
vn 0.941972 -0.013106 -0.335437
vn 0.935584 -0.014965 -0.352787
vn -0.698960 -0.021158 -0.714847
vn -0.698952 -0.022068 -0.714828
vn -0.698622 -0.050460 -0.713710
vn -0.698639 -0.048218 -0.713848
vn 0.698569 -0.049294 -0.713843
vn 0.698549 -0.051579 -0.713701
vn 0.698907 -0.022707 -0.714852
vn 0.698916 -0.021774 -0.714872
vn 0.802679 -0.028775 -0.595716
vn 0.802789 -0.024082 -0.595777
vn 0.802333 -0.037949 -0.595669
vn 0.802265 -0.038737 -0.595710
vn -0.802246 -0.037725 -0.595800
vn -0.802311 -0.036992 -0.595759
vn -0.802745 -0.023608 -0.595854
vn -0.802641 -0.028152 -0.595797
vn -0.984317 0.013787 -0.175867
vn -0.984297 0.015236 -0.175859
vn -0.984119 0.025326 -0.175696
vn -0.984123 0.025063 -0.175707
vn -0.885537 0.011476 -0.464427
vn -0.885575 0.006763 -0.464447
vn -0.885524 -0.013897 -0.464386
vn -0.885554 -0.010858 -0.464410
vn 0.885538 -0.010849 -0.464440
vn 0.885508 -0.013889 -0.464416
vn 0.885560 0.006770 -0.464477
vn 0.885521 0.011482 -0.464457
vn 0.094840 0.812369 0.575380
vn 0.094840 0.812369 0.575380
vn 0.094840 0.812369 0.575380
vn 0.094840 0.812369 0.575381
vn 0.094840 0.812369 0.575380
vn 0.411857 0.831257 0.373344
vn 0.411857 0.831257 0.373344
vn 0.411857 0.831257 0.373344
vn 0.411857 0.831257 0.373344
vn 0.411857 0.831257 0.373344
vn 0.598302 0.794846 -0.101261
vn 0.598302 0.794846 -0.101261
vn 0.598302 0.794846 -0.101261
vn 0.598302 0.794846 -0.101261
vn 0.598302 0.794846 -0.101261
vn -0.312390 0.804556 0.505077
vn -0.312390 0.804556 0.505077
vn -0.312390 0.804556 0.505077
vn -0.312390 0.804556 0.505077
vn -0.312390 0.804556 0.505077
vn -0.000000 0.960937 -0.276767
vn -0.000000 0.960937 -0.276767
vn -0.000000 0.960937 -0.276767
vn -0.000000 0.960937 -0.276767
vn -0.547769 0.784946 -0.289498
vn -0.547769 0.784946 -0.289498
vn -0.547769 0.784946 -0.289498
vn -0.547769 0.784946 -0.289498
vn -0.547769 0.784946 -0.289498
vn -0.561237 0.819463 0.116158
vn -0.561237 0.819463 0.116158
vn -0.561237 0.819463 0.116158
vn -0.561237 0.819463 0.116158
vn -0.561237 0.819463 0.116158
vn 0.547716 0.734705 -0.400270
vn 0.547716 0.734705 -0.400270
vn 0.547716 0.734705 -0.400270
vn 0.547716 0.734705 -0.400270
vn 0.547716 0.734705 -0.400270
vn 0.444614 0.761302 -0.471951
vn 0.444614 0.761302 -0.471951
vn 0.444614 0.761302 -0.471951
vn 0.444614 0.761302 -0.471951
vn 0.444614 0.761302 -0.471951
vn -0.444561 0.761323 -0.471967
vn -0.444561 0.761323 -0.471967
vn -0.444561 0.761323 -0.471967
vn -0.444561 0.761323 -0.471967
vn -0.444561 0.761323 -0.471967
vn -0.094843 0.812368 0.575380
vn -0.094843 0.812368 0.575380
vn -0.094843 0.812368 0.575380
vn -0.094843 0.812368 0.575380
vn -0.094843 0.812368 0.575380
vn 0.000000 0.870395 0.492354
vn 0.000000 0.870395 0.492354
vn 0.000000 0.870395 0.492354
vn 0.000000 0.870395 0.492354
vn -0.411836 0.831270 0.373339
vn -0.411836 0.831270 0.373339
vn -0.411836 0.831270 0.373339
vn -0.411836 0.831270 0.373339
vn -0.411836 0.831270 0.373339
vn -0.316946 0.879045 0.356125
vn -0.316946 0.879045 0.356125
vn -0.316946 0.879045 0.356125
vn -0.316946 0.879045 0.356125
vn -0.598299 0.794849 -0.101259
vn -0.598299 0.794849 -0.101259
vn -0.598299 0.794849 -0.101259
vn -0.598299 0.794849 -0.101259
vn -0.598299 0.794849 -0.101259
vn -0.460931 0.887428 0.003906
vn -0.460931 0.887428 0.003906
vn -0.460931 0.887428 0.003906
vn -0.460931 0.887428 0.003906
vn -0.547729 0.734723 -0.400219
vn -0.547729 0.734723 -0.400219
vn -0.547729 0.734723 -0.400219
vn -0.547729 0.734723 -0.400219
vn -0.547729 0.734723 -0.400219
vn 0.547788 0.784932 -0.289498
vn 0.547788 0.784932 -0.289498
vn 0.547788 0.784932 -0.289498
vn 0.547788 0.784932 -0.289498
vn 0.547788 0.784932 -0.289498
vn 0.447759 0.856630 -0.256313
vn 0.447759 0.856630 -0.256313
vn 0.447759 0.856630 -0.256313
vn 0.447759 0.856630 -0.256313
vn 0.561242 0.819461 0.116152
vn 0.561242 0.819461 0.116152
vn 0.561242 0.819461 0.116152
vn 0.561242 0.819461 0.116152
vn 0.561242 0.819461 0.116152
vn 0.460926 0.887430 0.003906
vn 0.460926 0.887430 0.003906
vn 0.460926 0.887430 0.003906
vn 0.460926 0.887430 0.003906
vn 0.312390 0.804540 0.505102
vn 0.312390 0.804540 0.505102
vn 0.312390 0.804540 0.505102
vn 0.312390 0.804540 0.505102
vn 0.312390 0.804540 0.505102
vn 0.316930 0.879058 0.356107
vn 0.316930 0.879058 0.356107
vn 0.316930 0.879058 0.356107
vn 0.316930 0.879058 0.356107
vn -0.403928 -0.842077 0.357419
vn -0.403928 -0.842077 0.357419
vn -0.403928 -0.842077 0.357419
vn -0.403928 -0.842077 0.357419
vn -0.403928 -0.842077 0.357419
vn 0.283900 -0.832640 0.475512
vn 0.283900 -0.832640 0.475512
vn 0.283900 -0.832640 0.475512
vn 0.283900 -0.832640 0.475512
vn 0.283900 -0.832640 0.475512
vn 0.509283 -0.853098 0.113380
vn 0.509283 -0.853098 0.113380
vn 0.509283 -0.853098 0.113380
vn 0.509283 -0.853098 0.113380
vn 0.509283 -0.853098 0.113380
vn 0.342128 -0.879225 -0.331530
vn 0.342128 -0.879225 -0.331530
vn 0.342128 -0.879225 -0.331530
vn 0.342128 -0.879225 -0.331530
vn 0.342128 -0.879225 -0.331530
vn -0.097878 -0.829902 0.549256
vn -0.097878 -0.829902 0.549256
vn -0.097878 -0.829902 0.549256
vn -0.097878 -0.829902 0.549256
vn -0.097878 -0.829902 0.549256
vn -0.342128 -0.879225 -0.331530
vn -0.342128 -0.879225 -0.331530
vn -0.342128 -0.879225 -0.331530
vn -0.342128 -0.879225 -0.331530
vn -0.342128 -0.879225 -0.331530
vn -0.442494 -0.866753 -0.230084
vn -0.442494 -0.866753 -0.230084
vn -0.442494 -0.866753 -0.230084
vn -0.442494 -0.866753 -0.230084
vn -0.442494 -0.866753 -0.230084
vn -0.509281 -0.853098 0.113387
vn -0.509281 -0.853098 0.113387
vn -0.509281 -0.853098 0.113387
vn -0.509281 -0.853098 0.113387
vn -0.509281 -0.853098 0.113387
vn 0.404231 -0.861589 -0.307022
vn 0.404231 -0.861589 -0.307022
vn 0.404231 -0.861589 -0.307022
vn 0.404231 -0.861589 -0.307022
vn 0.404231 -0.861589 -0.307022
vn 0.097875 -0.829902 0.549257
vn 0.097875 -0.829902 0.549257
vn 0.097875 -0.829902 0.549257
vn 0.097875 -0.829902 0.549257
vn 0.097875 -0.829902 0.549257
vn -0.283898 -0.832640 0.475513
vn -0.283898 -0.832640 0.475513
vn -0.283898 -0.832640 0.475513
vn -0.283898 -0.832640 0.475513
vn -0.283898 -0.832640 0.475513
vn -0.506337 -0.856931 -0.096400
vn -0.506337 -0.856931 -0.096400
vn -0.506337 -0.856931 -0.096400
vn -0.506337 -0.856931 -0.096400
vn -0.506337 -0.856931 -0.096400
vn -0.404244 -0.861586 -0.307011
vn -0.404244 -0.861586 -0.307011
vn -0.404244 -0.861586 -0.307011
vn -0.404244 -0.861586 -0.307011
vn -0.404244 -0.861586 -0.307011
vn 0.442507 -0.866749 -0.230073
vn 0.442507 -0.866749 -0.230073
vn 0.442507 -0.866749 -0.230073
vn 0.442507 -0.866749 -0.230073
vn 0.442507 -0.866749 -0.230073
vn 0.506336 -0.856930 -0.096406
vn 0.506336 -0.856931 -0.096406
vn 0.506336 -0.856931 -0.096406
vn 0.506336 -0.856931 -0.096406
vn 0.506336 -0.856931 -0.096406
vn 0.403919 -0.842076 0.357431
vn 0.403919 -0.842076 0.357431
vn 0.403919 -0.842076 0.357431
vn 0.403919 -0.842076 0.357431
vn 0.403919 -0.842076 0.357431
vn 0.482309 -0.858377 -0.174835
vn 0.482309 -0.858377 -0.174835
vn 0.482309 -0.858377 -0.174835
vn 0.482309 -0.858377 -0.174835
vn -0.000000 -0.951427 -0.307873
vn -0.000000 -0.951427 -0.307873
vn -0.000000 -0.951427 -0.307873
vn -0.000000 -0.951427 -0.307873
vn -0.482315 -0.858373 -0.174839
vn -0.482315 -0.858373 -0.174839
vn -0.482315 -0.858373 -0.174839
vn -0.482315 -0.858373 -0.174839
vn -0.487392 -0.873182 0.001353
vn -0.487392 -0.873182 0.001353
vn -0.487392 -0.873182 0.001353
vn -0.487392 -0.873182 0.001353
vn -0.323810 -0.859709 0.395029
vn -0.323810 -0.859709 0.395029
vn -0.323810 -0.859709 0.395030
vn -0.323810 -0.859709 0.395030
vn -0.000000 -0.855464 0.517862
vn -0.000000 -0.855464 0.517862
vn -0.000000 -0.855464 0.517862
vn -0.000000 -0.855464 0.517862
vn 0.323810 -0.859709 0.395030
vn 0.323810 -0.859709 0.395030
vn 0.323810 -0.859708 0.395030
vn 0.323810 -0.859709 0.395030
vn 0.487390 -0.873183 0.001353
vn 0.487390 -0.873183 0.001353
vn 0.487390 -0.873183 0.001353
vn 0.487390 -0.873183 0.001353
vn 0.856084 0.010107 -0.516739
vn 0.844959 0.005042 -0.534807
vn 0.759160 -0.051053 -0.648899
vn 0.749153 -0.053252 -0.660253
vn -0.000103 0.005360 -0.999986
vn -0.000133 0.005360 -0.999986
vn -0.759163 -0.049838 -0.648989
vn -0.749209 -0.052016 -0.660288
vn -0.856074 0.010161 -0.516754
vn -0.844940 0.005114 -0.534837
vn -0.941978 -0.013110 -0.335420
vn -0.935591 -0.014969 -0.352768
vn -0.999530 0.030459 0.003326
vn -0.999536 0.030450 0.001247
vn -0.892381 0.010862 0.451151
vn -0.902317 0.009255 0.430974
vn -0.630689 0.040088 0.775000
vn -0.637528 0.039784 0.769399
vn 0.365461 0.008297 0.930790
vn 0.356821 0.008619 0.934133
vn 0.519382 0.019016 0.854331
vn 0.519373 0.020152 0.854310
vn 0.744168 0.039686 0.666812
vn 0.744166 0.040181 0.666786
vn 0.977744 0.005334 0.209734
vn 0.977737 0.006500 0.209731
vn 0.984121 0.025326 -0.175685
vn 0.984126 0.025063 -0.175695
vn -0.356798 0.008567 0.934142
vn -0.365435 0.008243 0.930801
vn -0.168864 0.025076 0.985320
vn -0.168869 0.024593 0.985332
vn -0.168669 0.031792 0.985160
vn -0.168674 0.031796 0.985159
vn 0.000005 0.032133 0.999484
vn 0.000005 0.032133 0.999484
vn 0.168675 0.031790 0.985159
vn 0.168680 0.031794 0.985158
vn 0.168871 0.025073 0.985319
vn 0.168876 0.024591 0.985331
vn -0.447777 0.856618 -0.256323
vn -0.447777 0.856618 -0.256323
vn -0.447777 0.856618 -0.256323
vn -0.447777 0.856618 -0.256324
s off
g pPlane1
usemtl anisotropic1SG
f 8/7/1 2/12/2 6/5/3 4/3/4 7/6/5 3/2/6 5/4/7 1/1/8
f 8/8/9 1/9/10 12/25/11
f 1/1/12 5/10/13 11/24/14
f 6/11/15 2/12/16 14/27/17
f 3/13/18 7/14/19 9/22/20
f 5/15/21 3/16/22 10/23/23
f 4/17/24 6/18/25 15/28/26
f 7/70/27 4/19/28 16/74/29
f 2/20/30 8/21/31 13/26/32
s 1
f 90/196/33 91/197/34 93/200/35 92/199/36
f 86/190/37 87/191/38 89/194/39 88/193/40
f 94/202/41 95/203/42 97/206/43 96/205/44
f 108/223/45 109/224/46 25/37/47 24/90/48
f 112/229/49 113/230/50 27/40/51 26/67/52
f 116/235/53 117/236/54 29/43/55 28/88/56
f 120/241/57 121/242/58 49/45/59 48/68/60
f 70/166/61 71/167/62 73/170/63 72/169/64
f 66/160/65 67/161/66 69/164/67 68/163/68
f 62/154/69 63/155/70 65/158/71 64/157/72
f 74/172/73 75/173/74 77/176/75 76/175/76
f 82/184/77 83/185/78 85/188/79 84/187/80
f 78/178/81 79/179/82 81/182/83 80/181/84
f 58/148/85 59/149/86 61/152/87 60/151/88
s off
f 13/26/89 36/78/90 102/214/91 104/217/92 22/66/93
f 14/27/94 24/90/95 110/226/96 112/229/97 26/67/98
f 15/28/99 28/88/100 118/238/101 120/241/102 48/68/103
f 12/25/104 20/80/105 94/202/106 96/205/107 34/69/108
f 30/75/109 9/22/110 7/70/111 16/76/112
f 10/23/113 42/84/114 78/178/115 80/181/116 40/71/117
f 11/24/118 44/82/119 86/190/120 88/193/121 18/72/122
f 46/86/123 62/154/124 64/157/125 32/73/126 16/74/127
f 30/75/128 16/76/129 32/49/130 66/160/131 68/163/132
f 30/75/133 70/166/134 72/169/135 38/77/136 9/22/137
f 34/53/138 98/208/139 100/211/140 36/78/141 12/79/142
f 12/79/143 36/78/144 13/26/145 8/8/146
f 11/81/147 18/29/148 90/196/149 92/199/150 20/80/151
f 11/81/152 20/80/153 12/25/154 1/1/155
f 40/58/156 82/184/157 84/187/158 44/82/159 10/83/160
f 10/83/161 44/82/162 11/24/163 5/15/164
f 38/55/165 74/172/166 76/175/167 42/84/168 9/85/169
f 48/64/170 58/148/171 60/151/172 46/86/173 15/87/174
f 15/87/175 46/86/176 16/74/177 4/17/178
f 26/41/179 114/232/180 116/235/181 28/88/182 14/89/183
f 14/89/184 28/88/185 15/28/186 6/11/187
f 22/35/188 106/220/189 108/223/190 24/90/191 13/91/192
f 13/91/193 24/90/194 14/27/195 2/20/196
f 21/92/197 93/201/198 91/198/199 19/93/200 57/146/201
f 25/94/202 109/225/203 107/222/204 23/95/205 53/138/206
f 29/96/207 117/237/208 115/234/209 27/97/210 51/134/211
f 31/98/212 69/165/213 67/162/214 33/99/215 54/140/216
f 37/100/217 101/213/218 99/210/219 35/101/220 52/136/221
f 39/102/222 73/171/223 71/168/224 31/103/225 55/142/226
f 41/105/227 81/183/228 79/180/229 43/106/230 56/144/231
f 19/108/232 89/195/233 87/192/234 45/109/235 57/147/236
f 33/111/237 65/159/238 63/156/239 47/112/240 54/141/241
f 23/114/242 105/219/243 103/216/244 37/115/245 53/139/246
f 35/117/247 97/207/248 95/204/249 21/118/250 52/137/251
f 45/120/252 85/189/253 83/186/254 41/121/255 56/145/256
f 43/122/257 77/177/258 75/174/259 39/123/260 55/143/261
f 47/124/262 61/153/263 59/150/264 49/125/265 50/132/266
f 49/126/267 121/243/268 119/240/269 29/127/270 50/133/271
f 27/129/272 113/231/273 111/228/274 25/130/275 51/135/276
f 17/113/277 54/141/278 47/124/279 50/132/280
f 31/98/281 54/140/282 17/104/283 55/142/284
f 17/107/285 56/144/286 43/122/287 55/143/288
f 17/110/289 57/147/290 45/120/291 56/145/292
f 21/92/293 57/146/294 17/119/295 52/137/296
f 37/100/297 52/136/298 17/116/299 53/139/300
f 25/94/301 53/138/302 17/131/303 51/135/304
f 29/96/305 51/134/306 17/128/307 50/133/308
s 1
f 47/63/309 46/86/310 60/151/88 61/152/87
f 33/51/311 32/73/312 64/157/72 65/158/71
f 31/48/313 30/75/314 68/163/68 69/164/67
f 72/169/64 73/170/63 39/47/315 38/77/316
f 76/175/76 77/176/75 43/57/317 42/84/318
f 41/61/319 40/71/320 80/181/84 81/182/83
f 84/187/80 85/188/79 45/60/321 44/82/322
f 19/32/323 18/72/324 88/193/40 89/194/39
f 92/199/36 93/200/35 21/31/325 20/80/326
f 59/149/86 58/148/85 48/64/60 49/65/59
f 63/155/70 62/154/69 46/86/310 47/52/309
f 67/161/66 66/160/65 32/49/312 33/50/311
f 30/75/314 31/46/313 71/167/62 70/166/61
f 38/55/316 39/56/315 75/173/74 74/172/73
f 79/179/82 78/178/81 42/84/318 43/62/317
f 40/58/320 41/59/319 83/185/78 82/184/77
f 87/191/38 86/190/37 44/82/322 45/33/321
f 18/29/324 19/30/323 91/197/34 90/196/33
f 20/80/326 21/34/325 95/203/42 94/202/41
f 22/66/327 23/36/328 107/221/329 106/220/330
f 109/224/46 108/223/45 106/220/330 107/221/329
f 24/90/48 25/39/47 111/227/331 110/226/332
f 113/230/50 112/229/49 110/226/332 111/227/331
f 26/41/52 27/42/51 115/233/333 114/232/334
f 117/236/54 116/235/53 114/232/334 115/233/333
f 28/88/56 29/44/55 119/239/335 118/238/336
f 121/242/58 120/241/57 118/238/336 119/239/335
f 35/54/337 34/69/338 96/205/44 97/206/43
f 99/209/339 98/208/340 34/69/338 35/54/337
f 101/212/341 100/211/342 98/208/340 99/209/339
f 101/212/341 37/38/343 36/78/344 100/211/342
f 36/78/344 37/38/343 103/215/345 102/214/346
f 102/214/346 103/215/345 105/218/347 104/217/348
f 104/217/348 105/218/347 23/36/328 22/66/327
s off
f 3/13/349 9/85/350 42/84/351 10/23/352
